<?xml version="1.0" encoding="UTF-8" standalone="no"?>
<!-- Created with Inkscape (http://www.inkscape.org/) -->

<svg
   xmlns:dc="http://purl.org/dc/elements/1.1/"
   xmlns:cc="http://creativecommons.org/ns#"
   xmlns:rdf="http://www.w3.org/1999/02/22-rdf-syntax-ns#"
   xmlns:svg="http://www.w3.org/2000/svg"
   xmlns="http://www.w3.org/2000/svg"
   xmlns:sodipodi="http://sodipodi.sourceforge.net/DTD/sodipodi-0.dtd"
   xmlns:inkscape="http://www.inkscape.org/namespaces/inkscape"
   version="1.1"
   id="svg3713"
   width="500"
   height="500"
   viewBox="0 0 500 500"
   sodipodi:docname="bun.svg"
   inkscape:version="0.92.4 (5da689c313, 2019-01-14)">
  <metadata
     id="metadata3719">
    <rdf:RDF>
      <cc:Work
         rdf:about="">
        <dc:format>image/svg+xml</dc:format>
        <dc:type
           rdf:resource="http://purl.org/dc/dcmitype/StillImage" />
        <dc:title></dc:title>
      </cc:Work>
    </rdf:RDF>
  </metadata>
  <defs
     id="defs3717" />
  <sodipodi:namedview
     pagecolor="#ffffff"
     bordercolor="#666666"
     borderopacity="1"
     objecttolerance="10"
     gridtolerance="10"
     guidetolerance="10"
     inkscape:pageopacity="0"
     inkscape:pageshadow="2"
     inkscape:window-width="1920"
     inkscape:window-height="1027"
     id="namedview3715"
     showgrid="false"
     inkscape:zoom="1.716"
     inkscape:cx="250"
     inkscape:cy="250"
     inkscape:window-x="1912"
     inkscape:window-y="-8"
     inkscape:window-maximized="1"
     inkscape:current-layer="svg3713" />
  <g
     id="g3723"
     transform="translate(-5.8275088,-23.310023)">
    <path
       style="fill:#d1edee"
       d="M 92,433.187 C 90.625,433.00488 85.839038,431.10039 81.364529,428.9548 61.955645,419.64794 49.978048,399.64313 50.011869,376.59004 50.03393,361.55291 55.324167,348.75571 66,337.9144 c 11.176497,-11.34973 25.977391,-16.89447 41.21658,-15.44065 7.77593,0.74183 7.26961,1.46106 8.20032,-11.64854 1.01161,-14.24893 6.22773,-33.16178 12.74464,-46.21005 10.34759,-20.71814 30.36713,-36.70821 53.39244,-42.64576 28.89613,-7.45148 70.60076,-2.15811 98.05235,12.44532 l 8.25099,4.38927 0.69775,-4.12994 c 0.38376,-2.27147 1.47914,-6.49849 2.43417,-9.39339 1.25078,-3.79135 1.42518,-5.49831 0.62359,-6.1032 C 291.00077,218.7156 286.9,216.92693 282.5,215.20264 270.55879,210.52306 233.94126,192.04543 222.26298,184.80634 195.40421,168.15721 176,146.55395 176,133.30044 c 0,-8.05374 5.81934,-15.91414 13.8899,-18.76159 9.17316,-3.23648 20.82959,-1.73591 38.90313,5.00815 22.92833,8.5556 37.4194,18.38929 64.87572,44.02489 6.14281,5.73546 11.43941,10.42811 11.77023,10.42811 0.33081,0 -0.79566,-2.3625 -2.50328,-5.25 -6.2922,-10.63981 -18.93539,-37.5198 -21.84051,-46.4339 -6.16121,-18.9051 -7.89435,-37.758569 -4.21553,-45.85747 4.51097,-9.930875 14.72169,-13.063352 25.66094,-7.872341 12.67498,6.014672 29.4503,30.664889 37.71093,55.413711 2.38047,7.13188 11.29425,43.70532 11.94242,49 0.30229,2.46931 0.45337,2.50791 12.30605,3.14419 19.35619,1.03909 35.76799,6.43948 51.4459,16.92854 29.66837,19.84914 41.26364,48.24483 29.50595,72.25717 -9.54047,19.48418 -30.6629,35.88422 -56.95185,44.21898 l -10,3.17044 -0.25604,6.39034 c -0.79237,19.77602 -4.9698,45.51187 -9.96485,61.39034 -2.74889,8.73826 -9.1103,22.15644 -12.8873,27.18328 -1.3155,1.7508 -2.39181,3.39946 -2.39181,3.66369 0,0.26423 4.23101,2.76129 9.40224,5.54903 15.9023,8.57269 19.38884,12.99811 11.84776,15.03821 -3.42521,0.92663 -275.591635,2.13466 -282.25,1.25279 z"
       id="path3737"
       inkscape:connector-curvature="0" />
    <path
       style="fill:#95d4d5"
       d="M 90.772661,431.46302 C 79.557766,428.70917 70.150902,422.40732 62.448383,412.488 45.175476,390.24391 47.97766,355.93026 68.606782,337.0764 79.079259,327.50515 89.880991,323.47635 104.69604,323.61593 l 10.19603,0.0961 0.56036,-5.60599 c 2.3577,-23.58716 4.97728,-33.90957 12.58881,-49.606 9.36924,-19.32116 19.94243,-30.32887 37.45876,-38.99818 23.56959,-11.66524 57.22345,-13.17065 89.45088,-4.00131 4.70202,1.33781 14.0475,5.18277 20.76773,8.54435 6.72024,3.36158 12.68274,5.82512 13.25,5.47454 0.56727,-0.35059 1.03139,-1.92078 1.03139,-3.48932 0,-1.56854 0.89419,-5.70448 1.9871,-9.19099 1.0929,-3.4865 1.9929,-6.84139 2,-7.45532 0.007,-0.61393 -5.4996,-3.27137 -12.2371,-5.90543 -64.13319,-25.07318 -111.02394,-63.93808 -103.74644,-85.98913 1.72478,-5.22612 6.37807,-10.08764 11.54396,-12.06051 3.49539,-1.3349 6.44547,-1.58775 13.7034,-1.17453 11.20679,0.63806 21.70507,3.81905 36.02621,10.91601 19.46379,9.64542 33.51731,20.23979 58.33573,43.97689 6.90818,6.6072 12.7962,11.7772 13.0845,11.48891 0.28829,-0.2883 -2.42983,-5.61183 -6.04028,-11.83008 -14.44961,-24.88647 -23.96681,-48.1719 -27.15042,-66.42806 -2.69661,-15.463488 -1.71629,-23.791623 3.49987,-29.7325 6.922,-7.883718 18.32071,-6.668574 29.14053,3.106486 8.83896,7.98547 21.47918,27.469774 26.84167,41.375174 3.87825,10.05662 9.40622,31.31676 12.05772,46.373 1.1623,6.6 2.43018,12.33034 2.8175,12.73409 0.38733,0.40375 5.63889,0.92811 11.67014,1.16525 36.23801,1.4248 72.13402,23.80718 82.52132,51.45484 8.5462,22.74724 -2.70535,48.05685 -29.3772,66.08205 -6.99324,4.72613 -22.053,11.62452 -30.41445,13.93187 -3.97993,1.09827 -7.6382,2.24528 -8.12949,2.54892 -0.49129,0.30363 -1.20696,5.39652 -1.59037,11.31752 -0.8522,13.16052 -3.06109,30.80088 -5.07401,40.52151 -3.21903,15.54511 -11.00301,35.33768 -17.07897,43.42723 -1.31501,1.7508 -2.39092,3.84946 -2.39092,4.66369 0,0.84287 4.04915,3.66326 9.40224,6.54903 5.17124,2.78773 10.82688,6.26736 12.5681,7.73249 2.90503,2.44443 3.03374,2.79602 1.56226,4.2677 -1.44418,1.44438 -10.17397,1.61997 -87.81809,1.76637 C 240.29653,431.752 177.875,432.06011 149,432.34729 c -43.06972,0.42834 -53.52877,0.26952 -58.227339,-0.88423 z"
       id="path3735"
       inkscape:connector-curvature="0" />
    <path
       style="fill:#f68e8e"
       d="m 99.798159,431.46483 c -0.17259,-0.17259 -3.504694,-0.51011 -7.404677,-0.75003 -18.739436,-1.15285 -36.270862,-19.63392 -40.641307,-42.84278 -0.582891,-3.09539 -0.729417,-6.47039 -0.325615,-7.5 C 51.830362,379.34241 52.327218,376.025 52.530684,373 53.388965,360.23962 59.924266,346.91879 69.84663,337.70509 75.235766,332.70086 85.005798,327.45895 91,326.3557 c 1.925,-0.3543 3.824563,-1.14178 4.221252,-1.74994 0.456955,-0.70057 4.212975,-1.04403 10.249998,-0.93729 5.24081,0.0927 9.54036,-0.13234 9.55455,-0.5 0.6949,-18.00491 6.75074,-45.60199 10.78941,-49.16847 0.93423,-0.825 2.59549,-3.51447 3.69169,-5.9766 11.60523,-26.06597 39.23262,-44.56305 68.9931,-46.19223 2.2,-0.12043 4.3232,-0.69422 4.71821,-1.27507 1.06618,-1.56776 21.54537,-1.01977 33.28179,0.89056 13.8307,2.25122 32.5,7.77288 32.5,9.61224 0,1.18853 19.2284,11.06743 20.55266,10.55927 0.63319,-0.24298 1.43626,-2.86682 1.78461,-5.83076 0.34836,-2.96394 1.49368,-7.88949 2.54515,-10.94567 1.05148,-3.05618 1.59674,-6.06644 1.21169,-6.68947 -0.9522,-1.54069 -17.82482,-8.24607 -21.76367,-8.64914 -7.02558,-0.71894 -49.36313,-23.27606 -56.33044,-30.01242 -1.925,-1.86119 -7.55701,-6.70523 -12.51558,-10.76453 -16.69359,-13.66612 -25.38109,-25.84286 -26.02268,-36.47441 -0.38533,-6.38531 0.98028,-9.76303 5.47694,-13.54672 4.72741,-3.97785 9.29494,-5.02193 19.46486,-4.44942 10.48964,0.59051 27.47805,5.55869 31.06522,9.08487 1.20827,1.18773 5.30959,3.67313 9.11404,5.52313 15.06587,7.32609 29.54947,18.63902 54.82878,42.82595 C 310.62744,183.37756 315,186.71196 315,184.33948 c 0,-0.36328 -3.15488,-5.95515 -7.01085,-12.42637 -14.52649,-24.37884 -24.5011,-47.47627 -28.64155,-66.32299 -2.18385,-9.940547 -2.27045,-24.230861 -0.17024,-28.09012 2.88347,-5.298511 6.34488,-7.747678 11.67343,-8.259684 7.10125,-0.682341 11.45055,1.174572 18.75466,8.007208 C 315.64314,82.895486 327,98.312942 327,100.86142 c 0,0.62622 0.70419,1.13858 1.56487,1.13858 2.26725,0 8.75721,14.48318 12.8208,28.61125 4.42068,15.36958 7.95829,31.96543 7.32779,34.37649 -0.62114,2.37524 1.14488,11.05094 2.62174,12.87948 0.80466,0.99628 2.60471,1.21215 6.63453,0.79565 11.10735,-1.14799 29.96422,2.8669 43.70248,9.30486 4.73255,2.21775 9.2727,4.03227 10.08922,4.03227 0.81653,0 4.24173,1.97047 7.61158,4.37881 12.70231,9.07804 22.26557,20.69379 26.62084,32.33429 2.53586,6.77771 3.73401,16.71903 2.13417,17.70778 -0.62041,0.38343 -1.12802,1.9805 -1.12802,3.54904 0,9.14974 -8.56808,24.71147 -18.84381,34.22499 -10.91967,10.10968 -27.9492,19.47188 -43.07766,23.68247 -4.08181,1.13606 -7.80563,2.44972 -8.27517,2.91926 -0.46953,0.46953 -1.30779,7.34486 -1.8628,15.27852 -2.53113,36.18165 -9.81615,62.80261 -22.05393,80.58962 -1.68212,2.44487 -2.83724,5.02155 -2.56693,5.72595 0.2703,0.7044 5.14645,3.84608 10.83588,6.98151 12.36875,6.81637 14.25101,8.16086 13.38554,9.56123 C 374.09623,429.65332 363.35604,430 341.5,430 c -20.50929,0 -32.60856,0.36664 -33,1 -0.86121,1.39346 -58.74385,1.35615 -60.13877,-0.0388 -0.69025,-0.69025 -8.39011,-0.84919 -22.95,-0.47373 -25.66481,0.66184 -125.15448,1.43591 -125.613071,0.97733 z"
       id="path3733"
       inkscape:connector-curvature="0" />
    <path
       style="fill:#afafb0"
       d="m 99.902082,431.56875 c -0.32305,-0.32305 -3.250962,-0.66077 -6.506473,-0.7505 l -5.919109,-0.16313 2.51175,-5.07533 c 3.625703,-7.32621 3.582781,-18.79203 -0.09975,-26.64637 -6.060009,-12.92518 -19.755187,-20.53013 -33.310527,-18.49738 -4.292564,0.64371 -4.587314,0.8853 -4.727805,3.87523 -0.147626,3.14178 -0.156085,3.147 -0.574574,0.35426 -0.233608,-1.55896 -0.130015,-3.58396 0.230205,-4.5 C 51.86602,379.24949 52.327218,376.025 52.530684,373 53.388965,360.23962 59.924266,346.91879 69.84663,337.70509 75.235766,332.70086 85.005798,327.45895 91,326.3557 c 1.925,-0.3543 3.801741,-1.11047 4.170536,-1.68038 0.368795,-0.56991 3.293795,-1.11556 6.500004,-1.21256 4.47603,-0.13541 4.72665,-0.0814 1.07946,0.2327 -5.787559,0.49841 -6.071411,1.93714 -1.2222,6.19481 6.01147,5.27814 11.25924,7.39998 19.4722,7.87326 10.25725,0.59107 17.50012,-2.13321 24.63172,-9.26482 4.17973,-4.17973 5.60122,-6.51306 7.281,-11.95155 2.49797,-8.08748 2.58481,-11.14325 0.52523,-18.48156 -3.02204,-10.76761 -12.01077,-19.56416 -22.5833,-22.10047 -4.20484,-1.00872 -5.23015,-0.98149 -5.95198,0.15811 -0.57636,0.90994 -0.87724,0.97215 -0.88736,0.18346 -0.008,-0.65631 0.78224,-1.78131 1.75702,-2.5 0.97477,-0.71868 2.66227,-3.32117 3.75,-5.7833 11.49949,-26.0299 40.00053,-45.04442 69.22767,-46.18536 2.3375,-0.0913 4.25,-0.54214 4.25,-1.00197 0,-0.45984 0.65159,-0.83607 1.44798,-0.83607 1.18352,0 1.25153,0.56354 0.37237,3.0855 -2.7726,7.95349 2.22361,22.07143 10.41823,29.43909 6.47531,5.82187 12.79704,7.85021 22.63479,7.26242 8.40349,-0.50209 13.56967,-2.60307 19.75522,-8.03406 6.41007,-5.62811 11.90158,-20.56534 8.12141,-22.09067 -0.93579,-0.3776 -0.94558,-0.52423 -0.039,-0.58333 0.66608,-0.0434 2.01608,0.74709 3,1.75668 2.5138,2.57939 19.40755,11.33284 20.82333,10.78955 0.64324,-0.24683 1.45455,-2.87383 1.8029,-5.83777 0.34836,-2.96394 1.49368,-7.88949 2.54515,-10.94567 1.05148,-3.05618 1.60826,-6.0478 1.23729,-6.64804 -0.83398,-1.34942 -20.23519,-9.24036 -21.221,-8.6311 -0.3927,0.2427 -1.76806,0.0189 -3.05636,-0.49727 -2.20065,-0.88178 -2.21561,-0.94239 -0.24734,-1.00194 2.6735,-0.0809 4.55904,-2.20719 8.03712,-9.06339 2.36644,-4.66484 2.78872,-6.71478 2.78097,-13.5 -0.0106,-9.29836 -2.10079,-14.93479 -7.93177,-21.38898 -7.11717,-7.87786 -21.65883,-12.04452 -32.13867,-9.20877 -12.38996,3.3526 -25.52809,19.56759 -21.42029,26.43676 0.73026,1.22117 -0.38529,0.55331 -2.56505,-1.53565 -2.12152,-2.03315 -7.91433,-7.01788 -12.8729,-11.07718 -16.96186,-13.88573 -25.35424,-25.77363 -26.05431,-36.9062 l -0.38007,-6.04392 4.25082,4.56467 c 9.34027,10.02989 25.05418,13.14505 36.94988,7.32502 6.56178,-3.21038 15.21145,-11.93949 14.33482,-14.46648 -0.46716,-1.34664 -0.22348,-1.28424 1.17425,0.30073 0.97006,1.1 4.90845,3.51363 8.75197,5.36363 15.01497,7.22714 29.51588,18.53893 54.8998,42.82595 12.2159,11.68798 16.58846,15.02238 16.58846,12.6499 0,-0.36328 -3.15488,-5.95515 -7.01085,-12.42637 -14.52649,-24.37884 -24.5011,-47.47627 -28.64155,-66.32299 -2.18385,-9.940547 -2.27045,-24.230861 -0.17024,-28.09012 2.88347,-5.298511 6.34488,-7.747678 11.67343,-8.259684 7.10125,-0.682341 11.45055,1.174572 18.75466,8.007208 C 315.64314,82.895486 327,98.312942 327,100.86142 c 0,0.62622 0.65917,1.13858 1.46482,1.13858 0.80565,0 1.95749,0.92058 2.55965,2.04573 0.98188,1.83466 0.90482,1.92706 -0.74691,0.89554 -4.2835,-2.67509 -15.37374,5.05548 -20.30605,14.15454 -3.19126,5.88719 -3.47072,7.09038 -3.46174,14.90419 0.008,6.53976 0.50042,9.566 2.13733,13.1224 4.65747,10.11898 14.37943,17.15934 25.49593,18.46341 7.17875,0.84213 13.5729,-0.89653 14.18222,-3.85635 0.25243,-1.2262 0.42274,-0.20446 0.37846,2.27054 -0.11293,6.31262 1.19284,12.66926 2.89223,14.07962 0.93848,0.77887 3.22393,0.98342 6.5657,0.58764 10.48289,-1.24154 29.84727,2.89763 43.51057,9.30047 4.73255,2.21775 9.41579,4.03227 10.4072,4.03227 0.9914,0 2.05473,0.40803 2.36295,0.90674 0.30822,0.49871 -0.30517,0.68039 -1.36309,0.40374 -1.41086,-0.36895 -2.60015,0.52205 -4.46249,3.34326 -8.84008,13.3916 -7.21844,30.05053 3.9905,40.99396 6.40108,6.24946 12.57853,8.58121 22.74766,8.58637 9.52898,0.005 12.39583,-1.20108 12.91792,-5.4338 0.36568,-2.96473 0.42334,-2.87417 0.5671,0.89071 0.088,2.30504 -0.28996,4.4691 -0.83996,4.80902 -0.55,0.33992 -1,1.90138 -1,3.46992 0,9.14974 -8.56808,24.71147 -18.84381,34.22499 -10.91967,10.10968 -27.9492,19.47188 -43.07766,23.68247 -4.08181,1.13606 -7.80563,2.44972 -8.27517,2.91926 -0.46953,0.46953 -1.30779,7.34486 -1.8628,15.27852 -2.53113,36.18165 -9.81615,62.80261 -22.05393,80.58962 -1.68212,2.44487 -2.83724,5.02155 -2.56693,5.72595 0.2703,0.7044 5.14645,3.84608 10.83588,6.98151 12.36875,6.81637 14.25101,8.16086 13.38554,9.56123 C 374.09623,429.65332 363.35604,430 341.5,430 c -20.50929,0 -32.60856,0.36664 -33,1 -0.86121,1.39346 -58.74385,1.35615 -60.13877,-0.0388 -0.68931,-0.68931 -8.40996,-0.8539 -22.95,-0.48925 -12.05118,0.30224 -35.18623,0.6743 -51.41123,0.82682 l -29.5,0.2773 29,-0.53805 29,-0.53805 -0.087,-6 c -0.22645,-15.6252 -12.70407,-28.20826 -29.03401,-29.27937 -11.94056,-0.78321 -21.89656,3.85741 -28.32684,13.2035 -3.90669,5.67818 -6.8217,16.69567 -5.40983,20.44689 l 0.98948,2.62898 -20.0712,0.32806 c -11.03916,0.18043 -20.33552,0.0637 -20.658568,-0.25931 z M 307,430.15004 c 0,-0.46748 -1.35164,-2.71584 -3.00364,-4.99636 -11.20703,-15.47086 -33.45324,-17.49091 -47.32878,-4.29766 C 253.30972,424.04877 250,428.8113 250,430.45034 250,430.75265 262.825,431 278.5,431 c 15.675,0 28.5,-0.38248 28.5,-0.84996 z m 42.83124,-48.65471 c 18.95452,-10.31634 22.30585,-35.74593 6.70864,-50.90468 -6.50659,-6.32368 -13.80816,-8.91497 -23.53988,-8.35418 -12.06846,0.69545 -21.46036,6.8838 -26.7156,17.60299 -2.33954,4.77199 -2.7719,6.91633 -2.75434,13.66054 0.0185,7.12237 0.38246,8.67178 3.31731,14.12355 4.25655,7.90696 8.44317,11.88393 15.75243,14.96361 8.37348,3.52808 19.56779,3.07925 27.23144,-1.09183 z M 237.28946,365.51282 C 251.74758,361.74696 261,349.82968 261,334.97321 c 0,-27.88756 -33.93604,-42.16761 -53.5642,-22.53945 -11.94766,11.94766 -12.58975,28.97774 -1.63503,43.36579 3.15961,4.14987 9.15906,7.69898 16.22347,9.59736 7.0513,1.89485 8.3962,1.90506 15.26522,0.11591 z m 129.72115,-90.51823 c 10.13906,-5.17256 17.57844,-15.6127 18.67142,-26.20275 1.15957,-11.23515 -5.05326,-23.81491 -14.56553,-29.49232 -13.5491,-8.08681 -29.20187,-6.24587 -40.22323,4.7307 -14.42599,14.36735 -10.5452,40.83427 7.3412,50.06691 8.54766,4.41215 21.11829,4.8042 28.77614,0.89746 z M 79.201014,427.04247 c -5.888637,-3.24638 -11.205165,-7.63099 -15.026441,-12.39252 -1.390365,-1.73247 0.142916,-0.57156 3.40729,2.57981 3.264373,3.15137 8.85638,7.30365 12.426681,9.22729 3.570301,1.92364 6.041456,3.49959 5.491456,3.50212 -0.55,0.003 -3.384544,-1.30999 -6.298986,-2.9167 z M 60.24346,409.75 c -1.485675,-1.85444 -5.435316,-9.89148 -5.050219,-10.27657 0.18302,-0.18302 1.732134,2.33558 3.442476,5.5969 3.111071,5.93226 3.486344,7.02457 1.607743,4.67967 z M 52.157895,390 c 0,-1.375 0.226973,-1.9375 0.504386,-1.25 0.277412,0.6875 0.277412,1.8125 0,2.5 -0.277413,0.6875 -0.504386,0.125 -0.504386,-1.25 z m 60.531525,-65.71408 c 1.37846,-0.25629 2.34958,-1.31522 2.62182,-2.85887 0.37663,-2.13561 0.41668,-2.09556 0.31057,0.31058 -0.0979,2.21915 -0.61343,2.78135 -2.62181,2.85887 -2.04955,0.0791 -2.10551,0.0231 -0.31058,-0.31058 z M 116.27236,311 c 0,-2.475 0.19502,-3.4875 0.43337,-2.25 0.23836,1.2375 0.23836,3.2625 0,4.5 -0.23835,1.2375 -0.43337,0.225 -0.43337,-2.25 z m 0.88553,-8 c 0,-1.375 0.22698,-1.9375 0.50439,-1.25 0.27741,0.6875 0.27741,1.8125 0,2.5 -0.27741,0.6875 -0.50439,0.125 -0.50439,-1.25 z m 1,-6 c 0,-1.375 0.22698,-1.9375 0.50439,-1.25 0.27741,0.6875 0.27741,1.8125 0,2.5 -0.27741,0.6875 -0.50439,0.125 -0.50439,-1.25 z m 0.92106,-4.58333 c 0.048,-1.16495 0.28494,-1.4019 0.60416,-0.60417 0.28887,0.72187 0.25335,1.58438 -0.0789,1.91667 -0.3323,0.33229 -0.56864,-0.25834 -0.52522,-1.3125 z m 1,-4 c 0.048,-1.16495 0.28494,-1.4019 0.60416,-0.60417 0.28887,0.72187 0.25335,1.58438 -0.0789,1.91667 -0.3323,0.33229 -0.56864,-0.25834 -0.52522,-1.3125 z M 122.0856,282 c -0.0302,-0.825 0.38124,-2.175 0.9144,-3 1.18132,-1.82797 1.18132,-0.24909 0,2.5 -0.56668,1.31874 -0.87815,1.48906 -0.9144,0.5 z m 324.99335,-47.58333 c 0.048,-1.16495 0.28494,-1.4019 0.60416,-0.60417 0.28887,0.72187 0.25335,1.58437 -0.0789,1.91667 -0.33229,0.33229 -0.56864,-0.25834 -0.52522,-1.3125 z M 259.8125,227.31689 c 0.72187,-0.28887 1.58438,-0.25335 1.91667,0.0789 0.33229,0.33229 -0.25834,0.56864 -1.3125,0.52522 -1.16495,-0.048 -1.4019,-0.28494 -0.60417,-0.60416 z m -7,-2 c 0.72187,-0.28887 1.58437,-0.25335 1.91667,0.0789 0.33229,0.33229 -0.25834,0.56864 -1.3125,0.52522 -1.16495,-0.048 -1.4019,-0.28494 -0.60417,-0.60416 z M 246.5,224 c -1.26064,-0.54172 -1.44548,-0.85943 -0.5,-0.85943 0.825,0 2.4,0.38674 3.5,0.85943 1.26064,0.54172 1.44548,0.85943 0.5,0.85943 -0.825,0 -2.4,-0.38674 -3.5,-0.85943 z m -6.75,-1.66228 c 0.6875,-0.27741 1.8125,-0.27741 2.5,0 0.6875,0.27741 0.125,0.50439 -1.25,0.50439 -1.375,0 -1.9375,-0.22698 -1.25,-0.50439 z m -6.48097,-1.03071 c 0.97297,-0.25354 2.32297,-0.23687 3,0.0371 0.67703,0.27393 -0.11903,0.48137 -1.76903,0.46099 -1.65,-0.0204 -2.20394,-0.2445 -1.23097,-0.49804 z m -8.50737,-1.01427 c 1.24391,-0.23919 3.04391,-0.23011 4,0.0202 0.95609,0.25029 -0.0617,0.446 -2.26166,0.4349 -2.2,-0.0111 -2.98225,-0.21589 -1.73834,-0.45508 z M 209.75,219.2766 c 1.7875,-0.22182 4.7125,-0.22182 6.5,0 1.7875,0.22183 0.325,0.40333 -3.25,0.40333 -3.575,0 -5.0375,-0.1815 -3.25,-0.40333 z M 435.87244,212.25 c -1.24387,-1.58606 -1.2085,-1.62143 0.37756,-0.37756 0.9625,0.75485 1.75,1.54235 1.75,1.75 0,0.82304 -0.82119,0.29331 -2.12756,-1.37244 z m -5,-6 c -1.24387,-1.58606 -1.2085,-1.62143 0.37756,-0.37756 1.66575,1.30637 2.19548,2.12756 1.37244,2.12756 -0.20765,0 -0.99515,-0.7875 -1.75,-1.75 z M 250.75,199.93791 c -4.2625,-2.17916 -7.75,-4.18669 -7.75,-4.46117 0,-0.44703 15.90037,7.20348 16.91667,8.1395 1.41686,1.30495 -2.47012,-0.25478 -9.16667,-3.67833 z M 424.40499,200.75 422.5,198.5 l 2.25,1.90499 c 1.2375,1.04774 2.25,2.06024 2.25,2.25 0,0.80025 -0.80479,0.20945 -2.59501,-1.90499 z m -4.53255,-3.5 c -1.24387,-1.58606 -1.2085,-1.62143 0.37756,-0.37756 0.9625,0.75485 1.75,1.54235 1.75,1.75 0,0.82304 -0.82119,0.29331 -2.12756,-1.37244 z M 234.75,191.42803 c -3.73844,-2.02814 -3.51088,-2.87286 0.25,-0.92803 1.65,0.85325 3,1.7648 3,2.02568 0,0.6435 -0.10745,0.60721 -3.25,-1.09765 z m -6.30887,-3.9832 c -1.86402,-1.49339 -1.85176,-1.51185 0.30887,-0.46481 1.2375,0.59969 2.25,1.29951 2.25,1.55516 0,0.76522 -0.51861,0.54424 -2.55887,-1.09035 z m -5,-3 c -1.86402,-1.49339 -1.85176,-1.51185 0.30887,-0.46481 1.2375,0.59969 2.25,1.29951 2.25,1.55516 0,0.76522 -0.51861,0.54424 -2.55887,-1.09035 z m 123.63782,-28.02816 c 0.048,-1.16495 0.28494,-1.4019 0.60416,-0.60417 0.28887,0.72187 0.25335,1.58437 -0.0789,1.91667 -0.33229,0.33229 -0.56864,-0.25834 -0.52522,-1.3125 z m -1,-5 c 0.048,-1.16495 0.28494,-1.4019 0.60416,-0.60417 0.28887,0.72187 0.25335,1.58437 -0.0789,1.91667 -0.33229,0.33229 -0.56864,-0.25834 -0.52522,-1.3125 z m -1,-4 c 0.048,-1.16495 0.28494,-1.4019 0.60416,-0.60417 0.28887,0.72187 0.25335,1.58437 -0.0789,1.91667 -0.33229,0.33229 -0.56864,-0.25834 -0.52522,-1.3125 z m -1,-4 c 0.048,-1.16495 0.28494,-1.4019 0.60416,-0.60417 0.28887,0.72187 0.25335,1.58437 -0.0789,1.91667 -0.33229,0.33229 -0.56864,-0.25834 -0.52522,-1.3125 z m -1,-4 c 0.048,-1.16495 0.28494,-1.4019 0.60416,-0.60417 0.28887,0.72187 0.25335,1.58437 -0.0789,1.91667 -0.33229,0.33229 -0.56864,-0.25834 -0.52522,-1.3125 z m -1,-4 c 0.048,-1.16495 0.28494,-1.4019 0.60416,-0.60417 0.28887,0.72187 0.25335,1.58437 -0.0789,1.91667 -0.33229,0.33229 -0.56864,-0.25834 -0.52522,-1.3125 z m -2,-7 c 0.048,-1.16495 0.28494,-1.4019 0.60416,-0.60417 0.28887,0.72187 0.25335,1.58437 -0.0789,1.91667 -0.33229,0.33229 -0.56864,-0.25834 -0.52522,-1.3125 z m -158.07532,-7.75849 c 1.37301,-1.563 3.39637,-3.30559 4.49637,-3.87241 2.10528,-1.08483 2.04382,-1.0194 -3.49637,3.72198 L 179.50727,123.5 Z M 229,121 c -0.825,-0.53316 -1.05,-0.96937 -0.5,-0.96937 0.55,0 1.675,0.43621 2.5,0.96937 0.825,0.53316 1.05,0.96937 0.5,0.96937 -0.55,0 -1.675,-0.43621 -2.5,-0.96937 z m 107.62354,-2.53866 c -0.96498,-2.51469 -0.68031,-3.16355 0.49853,-1.13634 0.58369,1.00375 0.8506,2.03566 0.59313,2.29313 -0.25747,0.25747 -0.74872,-0.26309 -1.09166,-1.15679 z M 218,117.5 c -1.925,-0.74131 -2.825,-1.34784 -2,-1.34784 0.825,0 3.075,0.60653 5,1.34784 1.925,0.74131 2.825,1.34784 2,1.34784 -0.825,0 -3.075,-0.60653 -5,-1.34784 z m -6.1875,-2.18311 c 0.72187,-0.28887 1.58437,-0.25335 1.91667,0.0789 0.33229,0.3323 -0.25834,0.56864 -1.3125,0.52522 -1.16495,-0.048 -1.4019,-0.28494 -0.60417,-0.60416 z m -18.54347,-1.00988 c 0.97297,-0.25354 2.32297,-0.23687 3,0.037 0.67703,0.27393 -0.11903,0.48137 -1.76903,0.46099 -1.65,-0.0204 -2.20394,-0.2445 -1.23097,-0.49804 z m 12,0 c 0.97297,-0.25354 2.32297,-0.23687 3,0.037 0.67703,0.27393 -0.11903,0.48137 -1.76903,0.46099 -1.65,-0.0204 -2.20394,-0.2445 -1.23097,-0.49804 z m 128.41019,-2.85349 c -2.34917,-4.92627 -2.01868,-5.76454 0.43728,-1.10916 1.11546,2.11441 1.85122,4.02125 1.63503,4.23745 -0.2162,0.21619 -1.14873,-1.19154 -2.07231,-3.12829 z"
       id="path3731"
       inkscape:connector-curvature="0" />
    <path
       style="fill:#c7a3a4"
       d="m 96,431.16513 c -2.475,-0.39436 -5.0625,-1.0694 -5.75,-1.50009 C 89.543936,429.22272 89,429.3428 89,429.94098 89,430.52344 88.57093,431 88.04651,431 c -0.524419,0 -0.199054,-1.31453 0.723034,-2.92117 0.922089,-1.60665 2.095688,-2.66212 2.607999,-2.3455 0.512311,0.31663 0.638952,0.10238 0.281424,-0.47612 -0.357527,-0.57849 -0.352519,-2.53945 0.01113,-4.3577 0.462255,-2.31127 0.836992,-2.80469 1.245541,-1.64001 0.321399,0.91624 0.584362,-2.22282 0.584362,-6.97569 0,-4.75287 -0.158605,-7.81801 -0.352456,-6.81143 -0.339235,1.76151 -3.968581,-6.82162 -4.525313,-10.70201 -0.136486,-0.95129 -0.629469,-2.07629 -1.095519,-2.5 -0.466049,-0.4237 -0.463835,-0.0954 0.0049,0.72963 0.734712,1.29308 0.61888,1.31067 -0.839675,0.12756 -1.95176,-1.58319 -2.307151,-3.60532 -0.441958,-2.51468 0.6875,0.402 0.392756,-0.24644 -0.654988,-1.44099 C 83.622565,386.92309 82.417999,386.24929 83.5,388 c 0.339919,0.55 0.168034,1 -0.381966,1 -1.116451,0 -2.579226,-1.96632 -2.602721,-3.49868 -0.0084,-0.54928 -0.690313,-0.99928 -1.515313,-1 -2.315726,-0.002 -8.030902,-2.6423 -7.517553,-3.47292 0.251366,-0.40672 -0.766854,-0.54426 -2.262709,-0.30565 -2.04459,0.32613 -2.36028,0.18318 -1.271711,-0.57587 1.440408,-1.00438 -0.128465,-0.94367 -11.638573,0.45032 -3.831407,0.46402 -4.224778,0.78156 -4.589963,3.70516 -0.385234,3.0841 -0.4051,3.06448 -0.559454,-0.55236 -0.139195,-3.26163 0.132983,-3.75396 2.089963,-3.78041 2.08909,-0.0282 2.117561,-0.10738 0.398109,-1.10671 -1.600756,-0.93034 -1.756878,-1.83675 -1.151264,-6.68392 1.705917,-13.6537 7.652187,-25.46889 17.349785,-34.47387 5.382528,-4.9981 15.144373,-10.23866 21.15337,-11.35601 1.925,-0.35795 4.473569,-1.28417 5.663487,-2.05827 1.365863,-0.88856 3.946593,-1.26807 7.000003,-1.02938 l 4.83651,0.37807 -5.25,0.18025 c -4.011251,0.13772 -5.25,0.5481 -5.25,1.73927 0,0.95705 -0.482651,1.28644 -1.25,0.85307 -0.6875,-0.38826 0.528826,1.16018 2.702948,3.44099 3.939722,4.13305 5.292342,5.16185 3.966872,3.01719 -0.42762,-0.69191 -0.15983,-0.93412 0.69098,-0.625 0.76406,0.2776 1.26555,1.04443 1.11442,1.70406 -0.15112,0.65963 0.15266,0.93516 0.67507,0.6123 1.14129,-0.70536 6.21108,1.44915 5.62842,2.39191 -0.22471,0.3636 4.1769,0.5505 9.78136,0.41534 12.11584,-0.2922 15.63714,-0.64528 15.10018,-1.5141 -0.53178,-0.86044 2.54174,-2.00248 3.61089,-1.34171 0.46237,0.28575 1.16629,-0.007 1.56427,-0.65127 0.4824,-0.78054 0.28727,-0.90114 -0.58541,-0.3618 -0.8866,0.54795 -1.06823,0.41942 -0.56287,-0.39828 0.41038,-0.66401 1.26741,-1.01378 1.90451,-0.77727 1.60342,0.59523 7.61551,-5.27254 7.01244,-6.84411 -0.26973,-0.70292 0.0598,-1.61809 0.73225,-2.0337 0.83338,-0.51505 0.96509,-0.33886 0.41367,0.55336 -0.52397,0.8478 -0.41763,1.06713 0.30182,0.62248 0.61096,-0.37759 0.82901,-1.42094 0.48457,-2.31855 -0.45226,-1.17857 -0.25828,-1.40459 0.69818,-0.81347 0.85027,0.5255 1.0847,0.43064 0.65479,-0.26497 -0.36831,-0.59594 -0.11376,-3.16194 0.56566,-5.70224 0.71653,-2.67902 1.45783,-3.98439 1.76515,-3.10829 0.29141,0.83074 0.52983,-1.831 0.52983,-5.91496 0,-4.08396 -0.23842,-6.7457 -0.52983,-5.91496 -0.30732,0.8761 -1.04862,-0.42927 -1.76515,-3.10829 -0.67942,-2.5403 -0.97005,-5.04792 -0.64584,-5.57251 0.32422,-0.52459 0.0498,-0.83014 -0.60985,-0.67902 -0.65963,0.15113 -1.42646,-0.35036 -1.70406,-1.11442 -0.34727,-0.95581 -0.0743,-1.13977 0.875,-0.58967 0.81459,0.47204 1.0384,0.42665 0.5464,-0.1108 -0.45834,-0.50068 -1.13334,-0.9413 -1.5,-0.97914 -0.36667,-0.0378 -2.91667,-2.25038 -5.66667,-4.91674 -2.75,-2.66636 -4.36797,-4.47836 -3.59549,-4.02668 0.95389,0.55776 1.17235,0.44561 0.6809,-0.34957 -0.39798,-0.64395 -1.1019,-0.93702 -1.56427,-0.65127 -1.34173,0.82924 -4.07494,-0.59086 -3.36089,-1.74622 0.36808,-0.59557 0.17146,-0.75474 -0.45445,-0.3679 -0.60676,0.375 -3.19709,0.15457 -5.75628,-0.48984 -3.82938,-0.96425 -4.80936,-0.92483 -5.53598,0.22269 -0.66087,1.04368 -0.88677,1.07209 -0.89823,0.11296 -0.008,-0.70477 0.63545,-1.53111 1.43083,-1.83632 0.79537,-0.30522 2.82694,-3.50565 4.51459,-7.11208 11.74728,-25.10337 35.01161,-41.2932 64.87203,-45.14496 4.96448,-0.64038 6.63898,-0.51067 7.75,0.60036 C 203.80575,223.9486 204,223.85894 204,222.07143 204,220.93214 204.42659,220 204.94798,220 c 0.57703,0 0.60976,1.07608 0.0836,2.75 -1.10744,3.52343 -2.12844,14.41637 -1.10151,11.75195 0.65468,-1.69861 0.8763,-1.47381 1.4788,1.5 0.3898,1.92393 0.79475,4.46758 0.89991,5.65256 0.10515,1.18498 0.50611,1.95987 0.89102,1.72199 0.94225,-0.58234 3.0335,3.43694 2.35742,4.53086 -0.29437,0.47631 0.24732,1.47951 1.20376,2.22933 1.60457,1.25793 1.62641,1.20872 0.28252,-0.63669 -0.80105,-1.1 0.21145,-0.44922 2.25,1.44617 3.8437,3.57376 5.01398,5.32414 1.95647,2.92627 -1.57263,-1.23333 -1.61589,-1.20109 -0.42689,0.31812 0.72772,0.92981 1.9197,1.46163 2.64885,1.18183 0.72916,-0.27981 1.66579,0.0415 2.0814,0.71394 0.51505,0.83338 0.33886,0.96509 -0.55336,0.41367 -0.8478,-0.52397 -1.06713,-0.41763 -0.62248,0.30182 0.37759,0.61096 1.42094,0.82901 2.31855,0.48457 0.89761,-0.34445 1.37744,-0.2123 1.06628,0.29367 -0.73414,1.19377 3.5942,1.72213 14.73765,1.79904 10.11574,0.0698 14.0768,-1.40709 21.79506,-8.12646 l 4.20494,-3.66074 -4,4.45405 -4,4.45405 4.20858,-3.91251 c 2.31472,-2.15187 4.00268,-4.24567 3.75101,-4.65287 -0.25167,-0.40721 0.66258,-3.14658 2.03165,-6.0875 C 267.11043,236.22081 267.81515,230 265.83333,230 c -0.64166,0 -0.93107,-0.23559 -0.64312,-0.52354 1.2468,-1.2468 3.77445,0.86256 3.44847,2.8778 -0.19089,1.18016 -0.15168,1.56757 0.0871,0.86092 0.30391,-0.89921 3.32164,0.23525 10.05491,3.77997 5.29137,2.78563 10.13874,4.86599 10.77192,4.62302 0.63319,-0.24298 1.43626,-2.86682 1.78461,-5.83076 0.34836,-2.96394 1.49368,-7.88949 2.54515,-10.94567 1.05148,-3.05618 1.58894,-6.07906 1.19436,-6.71751 -0.39459,-0.63845 -4.17722,-2.49307 -8.40585,-4.12137 -4.22863,-1.6283 -8.99921,-3.63838 -10.60129,-4.46685 -1.60208,-0.82847 -3.06065,-1.12336 -3.24126,-0.65531 -0.18061,0.46805 -1.22838,0.49299 -2.32838,0.0554 -1.91208,-0.76058 -1.91554,-0.79865 -0.0787,-0.86584 1.05669,-0.0387 2.84894,-0.85779 3.98277,-1.82029 2.00336,-1.70064 2.01968,-1.69359 0.57874,0.25 -1.37102,1.84927 -1.35171,1.89725 0.25622,0.63669 0.95644,-0.74982 1.49813,-1.75302 1.20376,-2.22933 -0.84164,-1.3618 1.53208,-5.04095 2.76193,-4.28086 0.66934,0.41367 0.8211,0.22423 0.38528,-0.48094 -0.39548,-0.6399 -0.41581,-2.11889 -0.0452,-3.28664 0.37062,-1.16775 0.96217,-1.66142 1.31454,-1.09705 0.35238,0.56436 0.73177,-1.96368 0.8431,-5.61788 0.11133,-3.65419 0.41647,-8.21899 0.6781,-10.14399 0.26163,-1.925 0.23298,-2.62391 -0.0636,-1.55313 -0.42639,1.53913 -0.82796,1.12026 -1.91741,-2 -0.75794,-2.17078 -1.16304,-4.53274 -0.90022,-5.24881 0.29113,-0.79319 0.0252,-1.02216 -0.68063,-0.58595 -0.76912,0.47534 -0.948,0.16746 -0.53222,-0.91604 0.34444,-0.89761 0.12639,-1.94096 -0.48457,-2.31855 -0.71945,-0.44465 -0.82579,-0.22532 -0.30182,0.62248 0.55142,0.89222 0.41971,1.06841 -0.41367,0.55336 -0.67247,-0.41561 -1.00277,-1.32874 -0.73398,-2.02917 0.26878,-0.70044 -1.34166,-3.01742 -3.57875,-5.14885 -2.2371,-2.13144 -3.71369,-3.25446 -3.28133,-2.49561 0.53852,0.94516 0.34856,1.22076 -0.60307,0.875 -0.76406,-0.2776 -1.2821,-0.99479 -1.1512,-1.59374 0.13741,-0.62871 -0.46028,-0.82106 -1.41404,-0.45506 -1.19713,0.45938 -1.42665,0.26924 -0.8335,-0.6905 0.54688,-0.88487 0.43241,-1.0858 -0.3449,-0.60539 -0.6399,0.39548 -2.11889,0.41581 -3.28664,0.0452 -1.67413,-0.53135 -1.83086,-0.86195 -0.74105,-1.56315 0.87454,-0.56269 0.0968,-0.67524 -2.11787,-0.30648 -2.07759,0.34594 -3.01105,0.23157 -2.29689,-0.28144 1.989,-1.42875 -12.844,-0.21781 -17.20311,1.40443 -2.2,0.81873 -4.75536,1.54067 -5.67857,1.6043 -0.92322,0.0636 -1.59822,0.58176 -1.5,1.15141 0.0982,0.56964 -0.58508,1.04117 -1.51843,1.04784 -2.28246,0.0163 -7.77766,5.39034 -7.15938,7.00153 0.271,0.70622 -0.0575,1.62409 -0.72995,2.0397 -0.83338,0.51505 -0.96509,0.33886 -0.41367,-0.55336 0.53934,-0.87268 0.41874,-1.06781 -0.3618,-0.58541 -0.64395,0.39798 -0.93702,1.1019 -0.65127,1.56427 0.65988,1.0677 -0.48013,4.14122 -1.34171,3.61731 -1.18867,-0.72279 -1.13858,7.70471 0.0554,9.31458 0.64826,0.87409 -0.59417,-0.0742 -2.76096,-2.10739 -2.16679,-2.03315 -7.99662,-7.01788 -12.95519,-11.07718 C 193.728,159.92049 186.10896,151.50275 182.10435,144 c -3.42404,-6.41503 -4.82916,-12.43401 -3.1456,-13.47451 0.84498,-0.52222 0.83139,-1.07342 -0.0527,-2.13868 -0.65508,-0.78933 -0.97711,-1.64909 -0.71561,-1.91059 0.26149,-0.26149 1.97941,1.43688 3.81759,3.77417 3.27156,4.15986 3.28037,4.19681 0.41705,1.74961 l -2.92509,-2.5 2.31046,2.62881 c 1.27076,1.44585 2.84576,2.59341 3.5,2.55014 0.65425,-0.0433 3.88954,1.23402 7.18954,2.83844 5.31969,2.58636 6.90708,2.88822 14,2.66226 10.99428,-0.35026 12.39467,-0.54106 11.74046,-1.59959 -0.31461,-0.50906 0.19788,-0.62583 1.14743,-0.26145 1.15642,0.44376 1.48251,0.28071 1,-0.5 -0.47711,-0.772 -0.16483,-0.94699 0.93607,-0.52454 0.95376,0.366 1.55145,0.17365 1.41404,-0.45506 -0.1309,-0.59895 0.38714,-1.31614 1.1512,-1.59374 0.96582,-0.35091 1.13589,-0.0842 0.55804,0.875 -0.70356,1.16791 -0.57309,1.17043 0.84979,0.0164 0.92452,-0.74982 1.4769,-1.69345 1.22752,-2.09697 -0.52875,-0.85553 4.88574,-6.27969 6.13013,-6.14108 0.46288,0.0516 0.82032,-1.29305 0.79431,-2.98802 -0.0406,-2.64259 0.12423,-2.84718 1.15635,-1.43567 0.66201,0.90535 4.42185,3.18837 8.35521,5.07338 15.28063,7.32305 29.91491,18.70861 55.45103,43.14125 12.21587,11.688 16.58843,15.0224 16.58843,12.64992 0,-0.36328 -3.15488,-5.95515 -7.01085,-12.42637 C 288.25649,138.7971 277.95759,110.80519 277.66736,89.5 c -0.13249,-9.72576 0.91485,-12.918925 5.70499,-17.393657 3.10338,-2.899027 10.67861,-3.904687 16.05266,-2.131092 6.97274,2.301213 20.36073,16.79875 26.57251,28.774749 1.21243,2.3375 2.78583,4.25 3.49646,4.25 0.71062,0 1.56003,0.69837 1.88758,1.55194 0.41119,1.07155 0.21215,1.3037 -0.64301,0.75 -1.71743,-1.11201 -7.67615,-1.01125 -6.97866,0.118 0.31251,0.50597 -0.17522,0.63466 -1.08385,0.28599 -0.95376,-0.366 -1.55145,-0.17365 -1.41404,0.45506 0.1309,0.59895 -0.38714,1.31614 -1.1512,1.59374 -0.95581,0.34727 -1.13977,0.0743 -0.58967,-0.875 0.47204,-0.81459 0.42665,-1.0384 -0.1108,-0.5464 -0.50068,0.45834 -0.91149,1.35834 -0.91292,2 -10e-4,0.64167 -0.77164,1.17189 -1.7116,1.17828 -2.19228,0.0149 -4.25933,2.08319 -4.2742,4.27678 -0.006,0.94139 -0.56067,1.60359 -1.23175,1.47156 -0.67108,-0.13202 -1.70841,0.76798 -2.30517,2 -1.04284,2.15297 -1.02457,2.16459 0.47014,0.29892 2.01216,-2.51154 1.97361,-1.5042 -0.10962,2.86437 -0.91563,1.92011 -1.97563,3.29899 -2.35554,3.06419 -0.37992,-0.2348 -0.49553,0.79698 -0.25692,2.29283 0.292,1.83062 0.13497,2.29689 -0.48034,1.42628 -1.1351,-1.60607 -0.55967,8.48756 0.83204,14.59476 0.5391,2.36571 0.67336,4.79774 0.29836,5.4045 -0.44235,0.71573 -0.21664,0.81571 0.64262,0.28466 0.96971,-0.59931 1.14808,-0.35895 0.66596,0.89743 -0.44376,1.15642 -0.28071,1.48251 0.5,1 0.772,-0.47711 0.94699,-0.16483 0.52454,0.93607 -0.366,0.95376 -0.17365,1.55145 0.45506,1.41404 0.59895,-0.1309 1.31614,0.38714 1.59374,1.1512 0.34576,0.95163 0.0702,1.14159 -0.875,0.60307 -0.75885,-0.43236 0.36417,1.04423 2.49561,3.28133 2.13143,2.23709 4.44841,3.84753 5.14885,3.57875 0.70043,-0.26879 1.61356,0.0615 2.02917,0.73398 0.51505,0.83338 0.33886,0.96509 -0.55336,0.41367 -0.8478,-0.52397 -1.06713,-0.41763 -0.62248,0.30182 0.37759,0.61096 1.42094,0.82901 2.31855,0.48457 1.17857,-0.45226 1.40459,-0.25828 0.81347,0.69818 -0.54688,0.88487 -0.43241,1.0858 0.3449,0.60539 0.6399,-0.39548 2.11889,-0.41581 3.28664,-0.0452 1.16916,0.37107 1.66139,0.96174 1.09546,1.31454 -0.56525,0.35238 1.73266,0.72324 5.10645,0.82415 3.37379,0.1009 7.71431,0.42779 9.64559,0.72641 2.2891,0.35394 2.83152,0.26071 1.55823,-0.26783 -1.69945,-0.70544 -1.54677,-0.89206 1.17521,-1.43645 2.20876,-0.44176 3.25734,-1.29885 3.56701,-2.91564 0.38548,-2.01257 0.4551,-1.95684 0.57479,0.46004 0.0749,1.5125 -0.32965,2.75 -0.899,2.75 -0.66934,0 -0.71038,0.61847 -0.11613,1.75 0.50548,0.9625 1.23149,3.63659 1.61335,5.94243 0.93981,5.67488 2.45364,6.71457 8.6996,5.97483 10.64832,-1.26113 30.06737,2.94617 43.62214,9.45112 4.79392,2.3006 9.46385,4.09359 10.37763,3.98442 0.91378,-0.10918 1.94965,0.26788 2.30194,0.8379 0.39628,0.64119 -0.0122,0.7859 -1.07131,0.3795 -1.17265,-0.44999 -2.48348,0.26231 -4.16169,2.26145 -1.34741,1.60509 -2.10593,2.28632 -1.68559,1.51384 0.51134,-0.93972 0.3768,-1.16505 -0.40656,-0.6809 -0.64395,0.39798 -0.93702,1.1019 -0.65127,1.56427 0.82924,1.34173 -0.59086,4.07494 -1.74622,3.36089 -0.59744,-0.36924 -0.75454,-0.17115 -0.36462,0.45975 0.3768,0.60969 0.38682,2.29698 0.0223,3.74953 -0.36457,1.45256 -0.95436,2.16935 -1.31064,1.59288 -1.00169,-1.62078 -0.0776,12.9458 1.05242,16.58854 0.55114,1.77675 0.67556,3.75878 0.27647,4.40451 -0.42803,0.69256 -0.2951,0.90799 0.32412,0.52529 1.15536,-0.71405 2.57546,2.01916 1.74622,3.36089 -0.28575,0.46237 0.007,1.16629 0.65127,1.56427 0.78054,0.4824 0.90114,0.28727 0.3618,-0.58541 -0.55142,-0.89222 -0.41971,-1.06841 0.41367,-0.55336 0.67247,0.41561 1.00198,1.33078 0.73225,2.0337 -0.26974,0.70292 1.16209,2.7949 3.18183,4.64885 L 415.5,242.5 l -3.5,-3.91702 -3.5,-3.91702 4.75,3.87878 c 4.49823,3.67319 6.13281,5.42792 3.59549,3.85977 -0.6991,-0.43207 -0.8837,-0.27535 -0.46797,0.39731 0.37759,0.61096 1.42094,0.82901 2.31855,0.48457 0.89761,-0.34445 1.37617,-0.2123 1.06347,0.29367 -0.31271,0.50597 0.40097,0.98468 1.58595,1.06381 1.18498,0.0791 5.03508,0.61707 8.55577,1.19543 6.21793,1.02144 15.54338,0.15355 17.23666,-1.60416 0.3895,-0.40433 0.90039,-2.08514 1.1353,-3.73514 0.38528,-2.70616 0.44179,-2.6327 0.57695,0.75 0.0824,2.0625 -0.21219,3.75 -0.65466,3.75 -0.44247,0 -0.91205,1.8228 -1.0435,4.05067 -0.88402,14.98221 -13.14934,32.78794 -30.5348,44.32774 -7.90005,5.24376 -22.65242,12.02572 -31.53868,14.49897 -4.08181,1.13606 -7.80563,2.44972 -8.27517,2.91926 -0.46953,0.46953 -1.30779,7.34486 -1.8628,15.27852 -2.53113,36.18165 -9.81615,62.80261 -22.05393,80.58962 -1.68212,2.44487 -2.83724,5.02155 -2.56693,5.72595 0.2703,0.7044 5.14645,3.84608 10.83588,6.98151 12.36875,6.81637 14.25101,8.16086 13.38554,9.56123 C 374.09586,429.65392 363.19295,430 340.94098,430 319.64699,430 308,430.35357 308,431 c 0,0.64407 -10.5,1 -29.5,1 -19.69276,0 -29.5,-0.34459 -29.5,-1.03651 0,-0.70097 -7.36479,-0.85987 -22.75,-0.49085 -12.5125,0.30012 -35.8,0.66742 -51.75,0.81623 -22.91407,0.21378 -23.06364,0.20862 -0.71271,-0.0245 21.35915,-0.22283 28.37993,-0.59749 28.66553,-1.52972 0.76655,-2.50207 1.36148,-12.16808 0.63282,-10.28141 -0.63803,1.65198 -0.85633,1.44337 -1.41554,-1.3527 -0.36365,-1.81825 -0.36866,-3.77921 -0.0111,-4.3577 0.40986,-0.66318 0.16068,-0.74936 -0.6744,-0.23325 -0.96971,0.59931 -1.14808,0.35895 -0.66596,-0.89743 0.44376,-1.15642 0.28071,-1.48251 -0.5,-1 -0.772,0.47711 -0.94699,0.16483 -0.52454,-0.93607 0.366,-0.95376 0.17365,-1.55145 -0.45506,-1.41404 -0.59895,0.1309 -1.31614,-0.38714 -1.59374,-1.1512 -0.35091,-0.96582 -0.0842,-1.13589 0.875,-0.55804 1.16791,0.70356 1.17043,0.57309 0.0164,-0.84979 -0.74982,-0.92452 -1.70217,-1.47152 -2.11635,-1.21554 -0.41418,0.25597 -1.55793,-0.42398 -2.54168,-1.51101 C 192.49491,402.88939 192.03987,402 192.46746,402 c 0.42758,0 0.22134,-0.67005 -0.45832,-1.48899 -0.67967,-0.81894 -1.61933,-1.25192 -2.08815,-0.96218 -0.46882,0.28975 -2.78033,-0.48727 -5.13669,-1.72671 -3.50826,-1.84532 -5.82396,-2.24275 -12.7843,-2.19409 -10.67308,0.0746 -14.9618,0.61438 -14.23765,1.79191 0.31286,0.50873 -0.2013,0.6256 -1.15024,0.26145 -1.15642,-0.44376 -1.48251,-0.28071 -1,0.5 0.47711,0.772 0.16483,0.94699 -0.93607,0.52454 -0.95376,-0.366 -1.55145,-0.17365 -1.41404,0.45506 0.1309,0.59895 -0.38714,1.31614 -1.1512,1.59374 -0.95163,0.34576 -1.14159,0.0702 -0.60307,-0.875 0.43236,-0.75885 -1.08,0.3991 -3.36081,2.57322 -2.2808,2.17412 -4.14692,4.17489 -4.14692,4.44616 0,0.27128 1.6648,-1.05755 3.69956,-2.95294 l 3.69956,-3.44617 -3.38851,4 c -1.86368,2.2 -3.71598,4 -4.11623,4 -0.40024,0 -1.10271,0.40965 -1.56105,0.91033 -0.492,0.53745 -0.26819,0.58284 0.5464,0.1108 0.9493,-0.5501 1.22227,-0.36614 0.875,0.58967 -0.2776,0.76406 -1.04443,1.26555 -1.70406,1.11442 -0.65963,-0.15112 -0.94606,0.13503 -0.6365,0.6359 0.30956,0.50088 -0.1851,3.94149 -1.09923,7.6458 -1.2833,5.20031 -1.41442,7.39119 -0.57536,9.6141 0.60772,1.61003 0.68421,2.87898 0.17356,2.87898 -0.50223,0 -0.92003,-0.7875 -0.92845,-1.75 -0.0113,-1.28955 -0.23002,-1.41161 -0.83133,-0.4639 -0.94657,1.49186 -34.5465,2.59107 -42.15336,1.37903 z m 211.38156,-1.71707 c 0.38909,-1.01395 0.19394,-1.30374 -0.56295,-0.83595 -0.772,0.47711 -0.94699,0.16483 -0.52454,-0.93607 0.366,-0.95376 0.17365,-1.55145 -0.45506,-1.41404 -0.59895,0.1309 -1.31614,-0.38714 -1.59374,-1.1512 -0.30912,-0.85081 -0.0669,-1.1186 0.625,-0.69098 1.9014,1.17513 1.2577,-6.6e-4 -1.10304,-2.01483 -1.81765,-1.55082 -1.98081,-1.57963 -0.87755,-0.15499 2.24561,2.89978 0.68574,1.97006 -2.45259,-1.46181 -1.6154,-1.76649 -2.14959,-2.61139 -1.18709,-1.87755 2.48795,1.89688 2.17206,0.76952 -0.42189,-1.50565 -1.19455,-1.04775 -1.80691,-1.28411 -1.36081,-0.52526 0.55699,0.94749 0.37588,1.23466 -0.5781,0.91667 C 296.12514,417.54171 295.5,416.73333 295.5,416 c 0,-0.73333 -0.675,-1.51759 -1.5,-1.7428 -1.33333,-0.36397 -1.33333,-0.29159 0,0.65136 1.66919,1.18047 0.99812,1.41168 -1.41247,0.48666 -0.86682,-0.33264 -1.33026,-1.00248 -1.02985,-1.48855 0.30041,-0.48607 -0.0397,-0.66608 -0.75574,-0.40002 -0.71607,0.26605 -2.65194,0.0746 -4.30194,-0.4255 -1.92206,-0.58254 -2.31132,-0.94013 -1.08333,-0.9952 1.05416,-0.0473 1.72916,-0.26334 1.5,-0.48015 -0.22917,-0.21681 -4.27999,-0.037 -9.00183,0.39962 -6.0465,0.55909 -10.18634,1.57882 -14,3.44849 -4.84265,2.37414 -5.15066,2.42461 -2.91484,0.47761 l 2.5,-2.17705 -2.5,1.54235 c -1.375,0.84829 -2.40741,1.9688 -2.29425,2.49002 0.11317,0.52122 -0.89933,1.98585 -2.25,3.25473 -1.35066,1.26888 -2.45575,1.94852 -2.45575,1.5103 0,-0.43822 -0.67005,-0.24067 -1.48899,0.43899 -0.81894,0.67967 -1.24459,1.6312 -0.94588,2.11453 0.29871,0.48332 0.0348,1.66983 -0.58651,2.63669 -1.02079,1.58855 -1.06847,1.56522 -0.49488,-0.24208 0.45773,-1.44225 0.33021,-1.69804 -0.45728,-0.91722 -0.60061,0.59553 -0.80413,1.83303 -0.45225,2.75 C 250.15055,430.8347 253.01847,431 278.5,431 c 24.64137,0 28.36276,-0.19997 28.88156,-1.55194 z M 138.66228,419.75 c -0.27741,-0.6875 -0.50439,-0.125 -0.50439,1.25 0,1.375 0.22698,1.9375 0.50439,1.25 0.27741,-0.6875 0.27741,-1.8125 0,-2.5 z m 133.06689,-8.35417 c -0.33229,-0.33229 -1.1948,-0.36781 -1.91667,-0.0789 -0.79773,0.31922 -0.56078,0.55618 0.60417,0.60416 1.05416,0.0434 1.64479,-0.19293 1.3125,-0.52522 z m 8.03249,-1.08291 c -0.95609,-0.25029 -2.75609,-0.25937 -4,-0.0202 -1.24391,0.23919 -0.46166,0.44398 1.73834,0.45508 2.2,0.0111 3.21775,-0.18461 2.26166,-0.4349 z M 185,396 c -0.825,-0.53316 -1.95,-0.96937 -2.5,-0.96937 -0.55,0 -0.325,0.43621 0.5,0.96937 0.825,0.53316 1.95,0.96937 2.5,0.96937 0.55,0 0.325,-0.43621 -0.5,-0.96937 z m -11.25,-2.71625 c -1.5125,-0.22913 -3.9875,-0.22913 -5.5,0 -1.5125,0.22912 -0.275,0.41659 2.75,0.41659 3.025,0 4.2625,-0.18747 2.75,-0.41659 z m 164,-7 c -1.5125,-0.22913 -3.9875,-0.22913 -5.5,0 -1.5125,0.22912 -0.275,0.41659 2.75,0.41659 3.025,0 4.2625,-0.18747 2.75,-0.41659 z m 5.74365,-1.14499 c -1.35129,-0.25863 -0.7663,-0.77917 2.05948,-1.83259 2.17078,-0.80925 4.7252,-1.57503 5.6765,-1.70173 0.95129,-0.1267 2.07629,-0.61168 2.5,-1.07773 0.4237,-0.46605 0.13834,-0.48069 -0.63414,-0.0325 -0.97445,0.56534 -1.17312,0.44045 -0.64885,-0.40785 0.41561,-0.67247 1.33078,-1.00198 2.0337,-0.73225 0.70292,0.26974 2.7949,-1.11716 4.64885,-3.082 1.85394,-1.96484 2.80831,-3.2533 2.12081,-2.86324 -1.6592,0.94136 -1.66396,0.95731 1.68421,-5.64422 1.59988,-3.15445 3.11885,-5.17945 3.37548,-4.5 0.25664,0.67946 0.29937,-0.78962 0.0949,-3.26462 -0.26662,-3.2282 -0.14908,-3.79344 0.41588,-2 0.54647,1.73476 0.78754,0.35733 0.78754,-4.5 0,-4.85733 -0.24107,-6.23476 -0.78754,-4.5 -0.55592,1.76472 -0.66551,1.19178 -0.37263,-1.94803 0.29948,-3.21049 0.13165,-4.04515 -0.60323,-3 -0.78618,1.11811 -0.90572,0.93507 -0.52467,-0.80335 0.31746,-1.44827 0.10942,-2.01401 -0.58319,-1.58595 -0.68755,0.42493 -0.83869,0.0452 -0.41819,-1.05056 0.44376,-1.15642 0.28071,-1.48251 -0.5,-1 -0.78072,0.4825 -0.94376,0.15641 -0.5,-1 0.44376,-1.15642 0.28071,-1.48251 -0.5,-1 -0.76912,0.47534 -0.948,0.16746 -0.53222,-0.91604 0.34444,-0.89761 0.12639,-1.94096 -0.48457,-2.31855 -0.73807,-0.45615 -0.82678,-0.21522 -0.26437,0.71797 0.72092,1.19619 0.59551,1.20095 -0.84549,0.0321 -1.7984,-1.45879 -2.38112,-3.67152 -0.69196,-2.62756 1.9136,1.18267 0.98006,-0.14438 -2.15466,-3.06291 -1.73507,-1.6154 -2.83351,-2.37459 -2.44098,-1.68709 1.0632,1.86218 -0.94761,1.51119 -2.53192,-0.44196 -1.16888,-1.441 -1.16412,-1.56641 0.0321,-0.84549 0.93319,0.56241 1.17412,0.4737 0.71797,-0.26437 -0.37759,-0.61096 -1.42094,-0.82901 -2.31855,-0.48457 -1.0835,0.41578 -1.39138,0.2369 -0.91604,-0.53222 0.48251,-0.78071 0.15642,-0.94376 -1,-0.5 -1.25638,0.48212 -1.49674,0.30375 -0.89743,-0.66596 0.53252,-0.86163 0.43119,-1.08504 -0.28996,-0.63934 -0.60969,0.3768 -2.29698,0.38682 -3.74953,0.0223 -2.00418,-0.50302 -2.31668,-0.88789 -1.29599,-1.5961 0.97411,-0.6759 0.79349,-0.79218 -0.65498,-0.42166 -1.1,0.28137 -5.89308,0.64835 -10.65129,0.8155 -4.75822,0.16716 -8.48483,0.57562 -8.28136,0.90769 0.55355,0.90345 -4.56852,3.01354 -5.66706,2.3346 -0.52241,-0.32286 -0.82619,-0.0473 -0.67507,0.6123 0.15113,0.65963 -0.35036,1.42646 -1.11442,1.70406 -0.95163,0.34576 -1.14159,0.0702 -0.60307,-0.875 0.43236,-0.75885 -1.04423,0.36417 -3.28133,2.49561 -2.23709,2.13143 -3.84753,4.44841 -3.57875,5.14885 0.26879,0.70043 -0.0615,1.61356 -0.73398,2.02917 -0.83338,0.51505 -0.96509,0.33886 -0.41367,-0.55336 0.52397,-0.8478 0.41763,-1.06713 -0.30182,-0.62248 -0.61096,0.37759 -0.82901,1.42094 -0.48457,2.31855 0.41578,1.0835 0.2369,1.39138 -0.53222,0.91604 -0.78071,-0.48251 -0.94376,-0.15642 -0.5,1 0.4205,1.0958 0.26936,1.47549 -0.41819,1.05056 -0.69261,-0.42806 -0.90065,0.13768 -0.58319,1.58595 0.32404,1.47836 0.18875,1.82676 -0.39405,1.0147 -0.53707,-0.74835 -0.86959,3.07085 -0.84209,9.67202 0.025,5.99978 0.23874,10.71538 0.47501,10.47912 0.37869,-0.3787 6.08112,9.28394 6.08112,10.30433 0,0.21958 -0.5625,0.0816 -1.25,-0.3067 -0.6875,-0.38826 0.51063,1.14154 2.66251,3.39957 2.15187,2.25803 4.21441,3.91891 4.58342,3.69086 0.36901,-0.22806 3.26326,0.63895 6.43167,1.92669 3.16841,1.28774 5.27376,2.50547 4.67855,2.70607 -0.59521,0.20059 3.27315,0.36472 8.59635,0.36472 5.3232,0 8.82922,-0.16256 7.79115,-0.36124 z M 312.43709,376.75 309.5,373.5 l 3.25,2.93709 c 1.7875,1.6154 3.25,3.0779 3.25,3.25 0,0.77256 -0.82513,0.0924 -3.56291,-2.93709 z M 357,376.5 c 1.29175,-1.375 2.57363,-2.5 2.84863,-2.5 0.275,0 -0.55688,1.125 -1.84863,2.5 -1.29175,1.375 -2.57363,2.5 -2.84863,2.5 -0.275,0 0.55688,-1.125 1.84863,-2.5 z m -48,-42.81291 c 0,-0.1721 1.4625,-1.6346 3.25,-3.25 l 3.25,-2.93709 -2.93709,3.25 C 309.82513,333.77946 309,334.45965 309,333.68709 Z M 356.87244,330.25 c -1.24387,-1.58606 -1.2085,-1.62143 0.37756,-0.37756 0.9625,0.75485 1.75,1.54235 1.75,1.75 0,0.82304 -0.82119,0.29331 -2.12756,-1.37244 z m -7.31357,53.19483 c 1.83031,-1.46637 1.7984,-1.48719 -0.55887,-0.36454 -3.06103,1.45781 -3.62834,1.91971 -2.3578,1.91971 0.53655,0 1.84905,-0.69982 2.91667,-1.55517 z m -273,-0.97663 c -1.067621,-0.80751 -2.417621,-1.45225 -3,-1.43276 -0.582378,0.0195 0.06613,0.67854 1.44113,1.46456 3.239254,1.85173 4.027847,1.83564 1.55887,-0.0318 z m 245.3578,1.16725 c -0.22917,-0.2005 -1.54167,-0.90032 -2.91667,-1.55516 -2.35727,-1.12265 -2.38918,-1.10183 -0.55887,0.36454 1.593,1.27626 4.84786,2.39128 3.47554,1.19062 z M 62.75,378.31067 c -0.9625,-0.25152 -2.5375,-0.25152 -3.5,0 -0.9625,0.25153 -0.175,0.45733 1.75,0.45733 1.925,0 2.7125,-0.2058 1.75,-0.45733 z M 307,370 c -0.5887,-1.1 -1.29537,-2 -1.57037,-2 -0.275,0 -0.0183,0.9 0.57037,2 0.5887,1.1 1.29537,2 1.57037,2 0.275,0 0.0183,-0.9 -0.57037,-2 z m 57.54806,-1.09293 c 0.87968,-1.70111 1.42188,-3.27046 1.2049,-3.48744 -0.21698,-0.21698 -1.14288,1.17483 -2.05756,3.09293 -2.05658,4.3127 -1.34401,4.64239 0.85266,0.39451 z m -130.3364,-2.17538 c -0.97152,-0.43608 0.018,-0.55644 2.28834,-0.27834 2.36446,0.28963 3.45004,0.14675 2.65498,-0.34943 -0.98616,-0.61545 -0.64038,-1.01626 1.29599,-1.50226 1.45255,-0.36457 3.13984,-0.35455 3.74953,0.0223 0.65242,0.40322 0.8277,0.23073 0.426,-0.41923 -0.74405,-1.20389 2.90537,-3.61203 4.23166,-2.79234 0.44926,0.27765 2.57746,-1.34265 4.72933,-3.60068 2.15188,-2.25803 3.29163,-3.75175 2.53278,-3.31939 -0.94516,0.53852 -1.22076,0.34856 -0.875,-0.60307 0.2776,-0.76406 0.99479,-1.2821 1.59374,-1.1512 0.62871,0.13741 0.82106,-0.46028 0.45506,-1.41404 -0.42245,-1.1009 -0.24746,-1.41318 0.52454,-0.93607 0.78071,0.48251 0.94376,0.15642 0.5,-1 -0.48212,-1.25638 -0.30375,-1.49674 0.66596,-0.89743 0.86163,0.53252 1.08504,0.43119 0.63934,-0.28996 -0.3768,-0.60969 -0.38682,-2.29698 -0.0223,-3.74953 0.36457,-1.45256 0.94084,-2.19122 1.2806,-1.64148 0.33976,0.54974 0.61774,-2.96453 0.61774,-7.80949 0,-4.84496 -0.27798,-8.35923 -0.61774,-7.80949 -0.33976,0.54974 -0.91603,-0.18892 -1.2806,-1.64148 -0.36457,-1.45255 -0.35455,-3.13984 0.0223,-3.74953 0.4457,-0.72115 0.22229,-0.82248 -0.63934,-0.28996 -0.96971,0.59931 -1.14808,0.35895 -0.66596,-0.89743 0.44376,-1.15642 0.28071,-1.48251 -0.5,-1 -0.772,0.47711 -0.94699,0.16483 -0.52454,-0.93607 0.366,-0.95376 0.17365,-1.55145 -0.45506,-1.41404 -0.59895,0.1309 -1.31614,-0.38714 -1.59374,-1.1512 -0.30912,-0.85081 -0.0669,-1.1186 0.625,-0.69098 2.14466,1.32547 1.11586,-0.0272 -3.01719,-3.96687 -2.28081,-2.17412 -3.79317,-3.33207 -3.36081,-2.57322 0.5352,0.93934 0.34271,1.23193 -0.60307,0.91667 -0.76406,-0.25469 -1.3892,-0.95057 -1.3892,-1.5464 0,-0.59583 -0.40965,-1.45833 -0.91033,-1.91667 -0.53745,-0.492 -0.58284,-0.26819 -0.1108,0.5464 0.5501,0.9493 0.36614,1.22227 -0.58967,0.875 -0.76406,-0.2776 -1.26555,-1.04443 -1.11442,-1.70406 0.15112,-0.65963 -0.14544,-0.93963 -0.65902,-0.62221 -0.51359,0.31741 -3.33724,-0.0457 -6.27478,-0.80694 -4.1128,-1.06579 -4.76609,-1.46925 -2.84098,-1.75455 1.375,-0.20377 -1.1,-0.37049 -5.5,-0.37049 -4.4,0 -6.875,0.16672 -5.5,0.37049 1.92511,0.2853 1.27182,0.68876 -2.84098,1.75455 -2.93754,0.76123 -5.81957,1.08827 -6.40451,0.72676 -0.67516,-0.41727 -0.76462,-0.17365 -0.24497,0.66715 0.59315,0.95974 0.36363,1.14988 -0.8335,0.6905 -0.95376,-0.366 -1.55145,-0.17365 -1.41404,0.45506 0.1309,0.59895 -0.38714,1.31614 -1.1512,1.59374 -0.95087,0.34548 -1.14193,0.0694 -0.60554,-0.875 0.43101,-0.75885 -1.30636,0.62646 -3.86081,3.07848 -4.59863,4.41422 -5.69981,5.81207 -3.51472,4.46161 0.69191,-0.42762 0.93412,-0.15983 0.625,0.69098 -0.2776,0.76406 -0.99479,1.2821 -1.59374,1.1512 -0.62871,-0.13741 -0.82106,0.46028 -0.45506,1.41404 0.42245,1.1009 0.24746,1.41318 -0.52454,0.93607 -0.78071,-0.48251 -0.94376,-0.15642 -0.5,1 0.48212,1.25638 0.30375,1.49674 -0.66596,0.89743 -0.86163,-0.53252 -1.08504,-0.43119 -0.63934,0.28996 0.3768,0.60969 0.38682,2.29698 0.0222,3.74953 -0.36457,1.45256 -0.94084,2.19122 -1.2806,1.64148 -0.33976,-0.54974 -0.61774,2.73953 -0.61774,7.30949 0,4.65356 0.3644,7.8011 0.82829,7.15451 0.48669,-0.67837 0.64937,-0.0328 0.39446,1.56523 -0.23861,1.49585 -0.123,2.52763 0.25692,2.29283 0.92519,-0.5718 4.19871,6.38979 3.52059,7.48701 -0.29309,0.47422 -0.006,1.18785 0.63794,1.58583 0.80071,0.49487 0.90324,0.27963 0.32435,-0.6809 -0.72092,-1.19619 -0.59551,-1.20095 0.84549,-0.0321 1.95262,1.58389 2.30529,3.599 0.44196,2.52533 -0.6875,-0.39615 -0.1896,0.44479 1.10645,1.86874 1.29605,1.42396 2.93803,2.36585 3.64885,2.09308 0.71082,-0.27276 1.63245,0.0543 2.04806,0.72674 0.51505,0.83338 0.33886,0.96509 -0.55336,0.41367 -0.8478,-0.52397 -1.06713,-0.41763 -0.62248,0.30182 0.37759,0.61096 1.42094,0.82901 2.31855,0.48457 1.0835,-0.41578 1.39138,-0.2369 0.91604,0.53222 -0.48251,0.78071 -0.15642,0.94376 1,0.5 1.25638,-0.48212 1.49674,-0.30375 0.89743,0.66596 -0.51965,0.8408 -0.43019,1.08442 0.24497,0.66715 0.58494,-0.36151 3.46697,-0.0345 6.40451,0.72676 4.16733,1.07992 4.79162,1.4708 2.84098,1.77883 -1.375,0.21712 0.52025,0.38305 4.21166,0.36873 3.96417,-0.0154 6.01097,-0.34056 5,-0.79435 z M 249,360.68709 c 0,-0.1721 1.4625,-1.6346 3.25,-3.25 l 3.25,-2.93709 -2.93709,3.25 C 249.82513,360.77946 249,361.45965 249,360.68709 Z M 206.87244,358.25 c -1.24387,-1.58606 -1.2085,-1.62143 0.37756,-0.37756 1.66575,1.30637 2.19548,2.12756 1.37244,2.12756 -0.20765,0 -0.99515,-0.7875 -1.75,-1.75 z M 204,314.68709 c 0,-0.1721 1.4625,-1.6346 3.25,-3.25 l 3.25,-2.93709 -2.93709,3.25 C 204.82513,314.77946 204,315.45965 204,314.68709 Z M 251.92431,312.25 249.5,309.5 l 2.75,2.42431 c 2.57029,2.26589 3.20859,3.07569 2.42431,3.07569 -0.17912,0 -1.41662,-1.2375 -2.75,-2.75 z m -51.10819,37.24577 c -0.62755,-1.37732 -1.32936,-2.31586 -1.55958,-2.08564 -0.46705,0.46705 1.56047,4.58987 2.2572,4.58987 0.24386,0 -0.0701,-1.1269 -0.69762,-2.50423 z M 125.75,339.28375 c -1.5125,-0.22913 -3.9875,-0.22913 -5.5,0 -1.5125,0.22912 -0.275,0.41659 2.75,0.41659 3.025,0 4.2625,-0.18747 2.75,-0.41659 z M 262.71625,332.25 c -0.22912,-1.5125 -0.41659,-0.275 -0.41659,2.75 0,3.025 0.18747,4.2625 0.41659,2.75 0.22913,-1.5125 0.22913,-3.9875 0,-5.5 z m -66.01052,0.5 c -0.23835,-1.2375 -0.43337,-0.225 -0.43337,2.25 0,2.475 0.19502,3.4875 0.43337,2.25 0.23836,-1.2375 0.23836,-3.2625 0,-4.5 z M 110,336.60699 c 0,-0.21616 -0.69837,-0.661 -1.55194,-0.98855 -0.88992,-0.34149 -1.29132,-0.17385 -0.94098,0.39301 0.58726,0.95021 2.49292,1.40545 2.49292,0.59554 z m 211.52646,-13.41386 c -0.30789,-0.30789 -1.11479,-6.4e-4 -1.79313,0.68278 -0.98026,0.98762 -0.8654,1.10248 0.5598,0.5598 0.98622,-0.37553 1.54122,-0.93469 1.23333,-1.24258 z m 6.20271,-1.7973 c -0.33229,-0.33229 -1.1948,-0.36781 -1.91667,-0.0789 -0.79773,0.31922 -0.56078,0.55618 0.60417,0.60416 1.05416,0.0434 1.64479,-0.19293 1.3125,-0.52522 z M 337.75,320.28375 c -1.5125,-0.22913 -3.9875,-0.22913 -5.5,0 -1.5125,0.22912 -0.275,0.41659 2.75,0.41659 3.025,0 4.2625,-0.18747 2.75,-0.41659 z M 150,286.69617 c 0,-0.16711 -1.6875,-1.85461 -3.75,-3.75 L 142.5,279.5 l 3.44617,3.75 c 3.20761,3.49042 4.05383,4.20979 4.05383,3.44617 z m 209.64422,-9.02094 c 2.82932,-0.0964 4.98093,-0.44693 4.78136,-0.779 -0.54407,-0.90527 4.57734,-3.01246 5.67413,-2.3346 0.52241,0.32286 0.82619,0.0473 0.67507,-0.6123 -0.15113,-0.65963 0.35036,-1.42646 1.11442,-1.70406 0.96582,-0.35091 1.13589,-0.0842 0.55804,0.875 -0.69724,1.15743 -0.55465,1.15537 0.88497,-0.0128 0.94387,-0.76588 1.47613,-1.63249 1.18281,-1.92581 -0.74156,-0.74156 3.60382,-5.22628 4.51703,-4.66188 0.40774,0.25199 1.35482,-0.29826 2.10464,-1.22278 1.15401,-1.42288 1.15149,-1.55335 -0.0164,-0.84979 -0.95924,0.57785 -1.22591,0.40778 -0.875,-0.55804 0.2776,-0.76406 0.99479,-1.2821 1.59374,-1.1512 0.62871,0.13741 0.82106,-0.46028 0.45506,-1.41404 -0.42245,-1.1009 -0.24746,-1.41318 0.52454,-0.93607 0.78071,0.48251 0.94376,0.15642 0.5,-1 -0.48212,-1.25638 -0.30375,-1.49674 0.66596,-0.89743 0.83508,0.51611 1.08426,0.42993 0.6744,-0.23325 -0.35753,-0.57849 -0.35252,-2.53945 0.0111,-4.3577 0.46225,-2.31127 0.83699,-2.80469 1.24554,-1.64001 0.3214,0.91624 0.58436,-1.99782 0.58436,-6.47569 0,-4.47787 -0.15861,-7.31801 -0.35246,-6.31143 -0.22315,1.15872 -0.9926,0.032 -2.09732,-3.07111 -0.95967,-2.6957 -2.09911,-5.80127 -2.53207,-6.90127 l -0.78722,-2 1.6897,2 c 1.66372,1.96925 1.67302,1.96556 0.60468,-0.24005 -0.59676,-1.23202 -1.63409,-2.13202 -2.30517,-2 -0.67108,0.13203 -1.16286,-0.51616 -1.09284,-1.44041 0.07,-0.92426 -1.23708,-2.94926 -2.90466,-4.5 -1.66758,-1.55075 -2.71081,-2.25704 -2.31828,-1.56954 0.94753,1.6596 0.96128,1.6637 -5.63974,-1.68421 -3.15445,-1.59988 -5.17945,-3.12795 -4.5,-3.39571 0.67946,-0.26776 -0.56462,-0.29483 -2.76462,-0.0602 -2.33819,0.24942 -3.29011,0.10749 -2.29127,-0.34162 0.98455,-0.4427 -1.55583,-0.78684 -5.99422,-0.81203 -4.23661,-0.024 -6.58054,0.22972 -5.20872,0.56392 2.14551,0.52269 1.8651,0.72977 -2.00579,1.48127 -2.475,0.4805 -5.53573,0.94747 -6.80162,1.03771 -1.2659,0.0902 -2.8409,0.73592 -3.5,1.43485 -0.96705,1.02547 -0.71578,1.04116 1.30162,0.0813 l 2.5,-1.18952 -2.5,2.04488 c -2.82022,2.3068 -4.47218,2.71356 -3.40884,0.83935 0.39006,-0.6875 -0.8984,0.26687 -2.86324,2.12081 -1.96484,1.85395 -3.35174,3.94593 -3.082,4.64885 0.26973,0.70292 -0.0598,1.61809 -0.73225,2.0337 -0.83338,0.51505 -0.96509,0.33886 -0.41367,-0.55336 0.52397,-0.8478 0.41763,-1.06713 -0.30182,-0.62248 -0.61096,0.37759 -0.82901,1.42094 -0.48457,2.31855 0.41578,1.0835 0.2369,1.39138 -0.53222,0.91604 -0.78071,-0.48251 -0.94376,-0.15642 -0.5,1 0.48212,1.25638 0.30375,1.49674 -0.66596,0.89743 -0.86163,-0.53252 -1.08504,-0.43119 -0.63934,0.28996 0.3768,0.60969 0.38682,2.29698 0.0223,3.74953 -0.50302,2.00418 -0.88789,2.31668 -1.5961,1.29599 -0.6759,-0.97411 -0.79218,-0.79349 -0.42166,0.65498 0.28137,1.1 0.64835,5.89308 0.8155,10.65129 0.16716,4.75822 0.58919,8.47644 0.93786,8.26271 0.73189,-0.44862 3.34334,5.35618 3.41277,7.586 0.0257,0.825 0.52845,1.40741 1.11725,1.29425 0.5888,-0.11317 2.10873,0.89933 3.37761,2.25 1.26888,1.35066 1.94852,2.45575 1.5103,2.45575 -0.43822,0 -0.24067,0.67005 0.43899,1.48899 0.67967,0.81894 1.5892,1.27055 2.02119,1.00356 0.432,-0.26699 2.74351,0.40309 5.1367,1.48905 2.39319,1.08596 5.47625,2.02921 6.85125,2.09612 l 2.5,0.12164 -2.5,0.83417 c -1.70907,0.57026 -0.91814,0.67326 2.5,0.32556 2.75,-0.27974 7.3149,-0.58748 10.14422,-0.68386 z M 330,223.5 c 1.29175,-1.375 2.57363,-2.5 2.84863,-2.5 0.275,0 -0.55688,1.125 -1.84863,2.5 -1.29175,1.375 -2.57363,2.5 -2.84863,2.5 -0.275,0 0.55688,-1.125 1.84863,-2.5 z m 46.40499,-0.75 -1.90499,-2.25 2.25,1.90499 c 1.2375,1.04774 2.25,2.06024 2.25,2.25 0,0.80025 -0.80479,0.20945 -2.59501,-1.90499 z m -35.48832,53.88545 c -0.22917,-0.2005 -1.54167,-0.90032 -2.91667,-1.55516 -2.35727,-1.12265 -2.38918,-1.10183 -0.55887,0.36454 1.593,1.27626 4.84786,2.39128 3.47554,1.19062 z m 27.57625,-0.624 c 0.35034,-0.56686 -0.0511,-0.7345 -0.94098,-0.39301 -1.73242,0.66479 -2.04939,1.38156 -0.61096,1.38156 0.51754,0 1.21592,-0.44485 1.55194,-0.98855 z m -236.76375,-1.61562 c -0.3323,-0.33229 -1.1948,-0.36781 -1.91667,-0.0789 -0.79773,0.31922 -0.56078,0.55618 0.60417,0.60416 1.05416,0.0434 1.64479,-0.19293 1.3125,-0.52522 z m 193.08695,-12.90006 c -0.62755,-1.37732 -1.32936,-2.31586 -1.55958,-2.08564 -0.46705,0.46705 1.56047,4.58987 2.2572,4.58987 0.24386,0 -0.0701,-1.1269 -0.69762,-2.50423 z M 238.25,261.2766 c -1.7875,-0.22182 -4.7125,-0.22182 -6.5,0 -1.7875,0.22183 -0.325,0.40333 3.25,0.40333 3.575,0 5.0375,-0.1815 3.25,-0.40333 z m 7.47917,-0.88077 c -0.3323,-0.33229 -1.1948,-0.36781 -1.91667,-0.0789 -0.79773,0.31922 -0.56078,0.55618 0.60417,0.60416 1.05416,0.0434 1.64479,-0.19293 1.3125,-0.52522 z m 5.32049,-1.92151 C 252.67235,257.6352 254,256.72364 254,256.44864 c 0,-0.44787 -5.88762,2.25777 -6.91667,3.17854 -1.01113,0.90474 1.26897,0.242 3.96633,-1.15286 z m 69.67507,-14.70641 c -0.22256,-1.79735 -0.40925,-0.56791 -0.41486,2.73209 -0.006,3.3 0.17648,4.77056 0.40466,3.26791 0.22817,-1.50265 0.23276,-4.20265 0.0102,-6 z m 111.5443,3.57615 c -0.67703,-0.27392 -2.02703,-0.29059 -3,-0.0371 -0.97297,0.25354 -0.41903,0.47766 1.23097,0.49804 1.65,0.0204 2.44606,-0.18706 1.76903,-0.46099 z m 9.46014,0.0518 c -0.33229,-0.33229 -1.1948,-0.36781 -1.91667,-0.0789 -0.79773,0.31922 -0.56078,0.55618 0.60417,0.60416 1.05416,0.0434 1.64479,-0.19293 1.3125,-0.52522 z M 205.12207,239.325 c -1.17884,-2.02721 -1.46351,-1.37835 -0.49853,1.13634 0.34294,0.8937 0.83419,1.41426 1.09166,1.15679 0.25747,-0.25747 -0.009,-1.28938 -0.59313,-2.29313 z m 196.59551,-26.06125 c -0.22985,-1.52006 -0.42406,-0.51375 -0.43157,2.23625 -0.007,2.75 0.18056,3.99369 0.41792,2.76375 0.23736,-1.22994 0.24351,-3.47994 0.0136,-5 z M 373,218.52568 c 0,-0.60653 -5.64064,-3.53931 -6.70034,-3.48376 -0.43981,0.023 0.77534,0.90419 2.70034,1.95808 3.94147,2.15787 4,2.18019 4,1.52568 z M 236.52646,155.19313 c -0.30789,-0.30789 -1.11479,-6.4e-4 -1.79313,0.68278 -0.98026,0.98762 -0.8654,1.10248 0.5598,0.5598 0.98622,-0.37553 1.54122,-0.93469 1.23333,-1.24258 z m 6.20271,-1.7973 c -0.3323,-0.33229 -1.1948,-0.36781 -1.91667,-0.0789 -0.79773,0.31922 -0.56078,0.55618 0.60417,0.60416 1.05416,0.0434 1.64479,-0.19293 1.3125,-0.52522 z m 8.03249,-1.08291 c -0.95609,-0.25029 -2.75609,-0.25937 -4,-0.0202 -1.24391,0.23919 -0.46166,0.44398 1.73834,0.45508 2.2,0.0111 3.21775,-0.18461 2.26166,-0.4349 z m 54.92145,-11.50042 c -0.31922,-0.79773 -0.55618,-0.56078 -0.60416,0.60417 -0.0434,1.05416 0.19293,1.64479 0.52522,1.3125 0.33229,-0.3323 0.36781,-1.1948 0.0789,-1.91667 z M 201.25,141.33772 c -0.6875,-0.27741 -1.8125,-0.27741 -2.5,0 -0.6875,0.27741 -0.125,0.50439 1.25,0.50439 1.375,0 1.9375,-0.22698 1.25,-0.50439 z m 12,0 c -0.6875,-0.27741 -1.8125,-0.27741 -2.5,0 -0.6875,0.27741 -0.125,0.50439 1.25,0.50439 1.375,0 1.9375,-0.22698 1.25,-0.50439 z m -19.33333,-1.70227 c -0.22917,-0.2005 -1.54167,-0.90032 -2.91667,-1.55516 -2.35727,-1.12265 -2.38918,-1.10183 -0.55887,0.36454 1.593,1.27626 4.84786,2.39128 3.47554,1.19062 z m 110.79059,-6.87379 c -0.23919,-1.24391 -0.44398,-0.46166 -0.45508,1.73834 -0.0111,2.2 0.18461,3.21775 0.4349,2.26166 0.25029,-0.95609 0.25937,-2.75609 0.0202,-4 z M 79.201014,427.04247 c -5.888637,-3.24638 -11.205165,-7.63099 -15.026441,-12.39252 -1.390365,-1.73247 0.142916,-0.57156 3.40729,2.57981 3.264373,3.15137 8.85638,7.30365 12.426681,9.22729 3.570301,1.92364 6.041456,3.49959 5.491456,3.50212 -0.55,0.003 -3.384544,-1.30999 -6.298986,-2.9167 z M 60.24346,409.75 c -1.485675,-1.85444 -5.435316,-9.89148 -5.050219,-10.27657 0.18302,-0.18302 1.732134,2.33558 3.442476,5.5969 3.111071,5.93226 3.486344,7.02457 1.607743,4.67967 z M 52.157895,390 c 0,-1.375 0.226973,-1.9375 0.504386,-1.25 0.277412,0.6875 0.277412,1.8125 0,2.5 -0.277413,0.6875 -0.504386,0.125 -0.504386,-1.25 z M 99.924314,329.25 97.5,326.5 l 2.75,2.42431 c 2.57029,2.26589 3.20859,3.07569 2.42431,3.07569 -0.17912,0 -1.41662,-1.2375 -2.749996,-2.75 z M 143,331.68709 c 0,-0.1721 1.4625,-1.6346 3.25,-3.25 l 3.25,-2.93709 -2.93709,3.25 C 143.82513,331.77946 143,332.45965 143,331.68709 Z m -30.31058,-7.40117 c 1.37846,-0.25629 2.34958,-1.31522 2.62182,-2.85887 0.37663,-2.13561 0.41668,-2.09556 0.31057,0.31058 -0.0979,2.21915 -0.61343,2.78135 -2.62181,2.85887 -2.04955,0.0791 -2.10551,0.0231 -0.31058,-0.31058 z M 116.27236,311 c 0,-2.475 0.19502,-3.4875 0.43337,-2.25 0.23836,1.2375 0.23836,3.2625 0,4.5 -0.23835,1.2375 -0.43337,0.225 -0.43337,-2.25 z m 0.88553,-8 c 0,-1.375 0.22698,-1.9375 0.50439,-1.25 0.27741,0.6875 0.27741,1.8125 0,2.5 -0.27741,0.6875 -0.50439,0.125 -0.50439,-1.25 z m 1,-6 c 0,-1.375 0.22698,-1.9375 0.50439,-1.25 0.27741,0.6875 0.27741,1.8125 0,2.5 -0.27741,0.6875 -0.50439,0.125 -0.50439,-1.25 z m 0.92106,-4.58333 c 0.048,-1.16495 0.28494,-1.4019 0.60416,-0.60417 0.28887,0.72187 0.25335,1.58438 -0.0789,1.91667 -0.3323,0.33229 -0.56864,-0.25834 -0.52522,-1.3125 z m 1,-4 c 0.048,-1.16495 0.28494,-1.4019 0.60416,-0.60417 0.28887,0.72187 0.25335,1.58438 -0.0789,1.91667 -0.3323,0.33229 -0.56864,-0.25834 -0.52522,-1.3125 z M 122.0856,282 c -0.0302,-0.825 0.38124,-2.175 0.9144,-3 1.18132,-1.82797 1.18132,-0.24909 0,2.5 -0.56668,1.31874 -0.87815,1.48906 -0.9144,0.5 z m 324.99335,-47.58333 c 0.048,-1.16495 0.28494,-1.4019 0.60416,-0.60417 0.28887,0.72187 0.25335,1.58437 -0.0789,1.91667 -0.33229,0.33229 -0.56864,-0.25834 -0.52522,-1.3125 z M 259.8125,227.31689 c 0.72187,-0.28887 1.58438,-0.25335 1.91667,0.0789 0.33229,0.33229 -0.25834,0.56864 -1.3125,0.52522 -1.16495,-0.048 -1.4019,-0.28494 -0.60417,-0.60416 z m -7,-2 c 0.72187,-0.28887 1.58437,-0.25335 1.91667,0.0789 0.33229,0.33229 -0.25834,0.56864 -1.3125,0.52522 -1.16495,-0.048 -1.4019,-0.28494 -0.60417,-0.60416 z M 246.5,224 c -1.26064,-0.54172 -1.44548,-0.85943 -0.5,-0.85943 0.825,0 2.4,0.38674 3.5,0.85943 1.26064,0.54172 1.44548,0.85943 0.5,0.85943 -0.825,0 -2.4,-0.38674 -3.5,-0.85943 z m -6.75,-1.66228 c 0.6875,-0.27741 1.8125,-0.27741 2.5,0 0.6875,0.27741 0.125,0.50439 -1.25,0.50439 -1.375,0 -1.9375,-0.22698 -1.25,-0.50439 z m -6.48097,-1.03071 c 0.97297,-0.25354 2.32297,-0.23687 3,0.0371 0.67703,0.27393 -0.11903,0.48137 -1.76903,0.46099 -1.65,-0.0204 -2.20394,-0.2445 -1.23097,-0.49804 z m -8.50737,-1.01427 c 1.24391,-0.23919 3.04391,-0.23011 4,0.0202 0.95609,0.25029 -0.0617,0.446 -2.26166,0.4349 -2.2,-0.0111 -2.98225,-0.21589 -1.73834,-0.45508 z M 209.75,219.2766 c 1.7875,-0.22182 4.7125,-0.22182 6.5,0 1.7875,0.22183 0.325,0.40333 -3.25,0.40333 -3.575,0 -5.0375,-0.1815 -3.25,-0.40333 z M 435.87244,212.25 c -1.24387,-1.58606 -1.2085,-1.62143 0.37756,-0.37756 0.9625,0.75485 1.75,1.54235 1.75,1.75 0,0.82304 -0.82119,0.29331 -2.12756,-1.37244 z m -5,-6 c -1.24387,-1.58606 -1.2085,-1.62143 0.37756,-0.37756 1.66575,1.30637 2.19548,2.12756 1.37244,2.12756 -0.20765,0 -0.99515,-0.7875 -1.75,-1.75 z M 250.75,199.93791 c -4.2625,-2.17916 -7.75,-4.18669 -7.75,-4.46117 0,-0.44703 15.90037,7.20348 16.91667,8.1395 1.41686,1.30495 -2.47012,-0.25478 -9.16667,-3.67833 z M 424.40499,200.75 422.5,198.5 l 2.25,1.90499 c 1.2375,1.04774 2.25,2.06024 2.25,2.25 0,0.80025 -0.80479,0.20945 -2.59501,-1.90499 z m -4.53255,-3.5 c -1.24387,-1.58606 -1.2085,-1.62143 0.37756,-0.37756 0.9625,0.75485 1.75,1.54235 1.75,1.75 0,0.82304 -0.82119,0.29331 -2.12756,-1.37244 z M 234.75,191.42803 c -3.73844,-2.02814 -3.51088,-2.87286 0.25,-0.92803 1.65,0.85325 3,1.7648 3,2.02568 0,0.6435 -0.10745,0.60721 -3.25,-1.09765 z m -6.30887,-3.9832 c -1.86402,-1.49339 -1.85176,-1.51185 0.30887,-0.46481 1.2375,0.59969 2.25,1.29951 2.25,1.55516 0,0.76522 -0.51861,0.54424 -2.55887,-1.09035 z m -5,-3 c -1.86402,-1.49339 -1.85176,-1.51185 0.30887,-0.46481 1.2375,0.59969 2.25,1.29951 2.25,1.55516 0,0.76522 -0.51861,0.54424 -2.55887,-1.09035 z M 224,165.68709 c 0,-0.1721 1.4625,-1.6346 3.25,-3.25 l 3.25,-2.93709 -2.93709,3.25 C 224.82513,165.77946 224,166.45965 224,165.68709 Z M 272.43709,162.75 269.5,159.5 l 3.25,2.93709 c 3.02946,2.73778 3.70965,3.56291 2.93709,3.56291 -0.1721,0 -1.6346,-1.4625 -3.25,-3.25 z m 42,-6 -2.93709,-3.25 3.25,2.93709 c 3.02946,2.73778 3.70965,3.56291 2.93709,3.56291 -0.1721,0 -1.6346,-1.4625 -3.25,-3.25 z m 32.64186,-0.33333 c 0.048,-1.16495 0.28494,-1.4019 0.60416,-0.60417 0.28887,0.72187 0.25335,1.58437 -0.0789,1.91667 -0.33229,0.33229 -0.56864,-0.25834 -0.52522,-1.3125 z m -1,-5 c 0.048,-1.16495 0.28494,-1.4019 0.60416,-0.60417 0.28887,0.72187 0.25335,1.58437 -0.0789,1.91667 -0.33229,0.33229 -0.56864,-0.25834 -0.52522,-1.3125 z m -1,-4 c 0.048,-1.16495 0.28494,-1.4019 0.60416,-0.60417 0.28887,0.72187 0.25335,1.58437 -0.0789,1.91667 -0.33229,0.33229 -0.56864,-0.25834 -0.52522,-1.3125 z m -1,-4 c 0.048,-1.16495 0.28494,-1.4019 0.60416,-0.60417 0.28887,0.72187 0.25335,1.58437 -0.0789,1.91667 -0.33229,0.33229 -0.56864,-0.25834 -0.52522,-1.3125 z m -1,-4 c 0.048,-1.16495 0.28494,-1.4019 0.60416,-0.60417 0.28887,0.72187 0.25335,1.58437 -0.0789,1.91667 -0.33229,0.33229 -0.56864,-0.25834 -0.52522,-1.3125 z m -1,-4 c 0.048,-1.16495 0.28494,-1.4019 0.60416,-0.60417 0.28887,0.72187 0.25335,1.58437 -0.0789,1.91667 -0.33229,0.33229 -0.56864,-0.25834 -0.52522,-1.3125 z m -2,-7 c 0.048,-1.16495 0.28494,-1.4019 0.60416,-0.60417 0.28887,0.72187 0.25335,1.58437 -0.0789,1.91667 -0.33229,0.33229 -0.56864,-0.25834 -0.52522,-1.3125 z m -158.07532,-7.75849 c 1.37301,-1.563 3.39637,-3.30559 4.49637,-3.87241 2.10528,-1.08483 2.04382,-1.0194 -3.49637,3.72198 L 179.50727,123.5 Z M 229,121 c -0.825,-0.53316 -1.05,-0.96937 -0.5,-0.96937 0.55,0 1.675,0.43621 2.5,0.96937 0.825,0.53316 1.05,0.96937 0.5,0.96937 -0.55,0 -1.675,-0.43621 -2.5,-0.96937 z m 107.62354,-2.53866 c -0.96498,-2.51469 -0.68031,-3.16355 0.49853,-1.13634 0.58369,1.00375 0.8506,2.03566 0.59313,2.29313 -0.25747,0.25747 -0.74872,-0.26309 -1.09166,-1.15679 z M 218,117.5 c -1.925,-0.74131 -2.825,-1.34784 -2,-1.34784 0.825,0 3.075,0.60653 5,1.34784 1.925,0.74131 2.825,1.34784 2,1.34784 -0.825,0 -3.075,-0.60653 -5,-1.34784 z m -6.1875,-2.18311 c 0.72187,-0.28887 1.58437,-0.25335 1.91667,0.0789 0.33229,0.3323 -0.25834,0.56864 -1.3125,0.52522 -1.16495,-0.048 -1.4019,-0.28494 -0.60417,-0.60416 z m -18.54347,-1.00988 c 0.97297,-0.25354 2.32297,-0.23687 3,0.037 0.67703,0.27393 -0.11903,0.48137 -1.76903,0.46099 -1.65,-0.0204 -2.20394,-0.2445 -1.23097,-0.49804 z m 12,0 c 0.97297,-0.25354 2.32297,-0.23687 3,0.037 0.67703,0.27393 -0.11903,0.48137 -1.76903,0.46099 -1.65,-0.0204 -2.20394,-0.2445 -1.23097,-0.49804 z m 128.41019,-2.85349 c -2.34917,-4.92627 -2.01868,-5.76454 0.43728,-1.10916 1.11546,2.11441 1.85122,4.02125 1.63503,4.23745 -0.2162,0.21619 -1.14873,-1.19154 -2.07231,-3.12829 z M 313,112.62244 c 0,-0.20765 0.7875,-0.99515 1.75,-1.75 1.58606,-1.24387 1.62143,-1.2085 0.37756,0.37756 C 313.82119,112.91575 313,113.44548 313,112.62244 Z"
       id="path3729"
       inkscape:connector-curvature="0" />
    <path
       style="fill:#72ccce"
       d="m 95.79203,431.07508 c -2.589384,-0.36173 -4.957342,-0.90706 -5.262129,-1.21185 -0.304788,-0.30478 0.382219,-2.67099 1.526681,-5.25824 2.54658,-5.75696 2.815895,-17.07791 0.555856,-23.36597 -5.089164,-14.15949 -21.006402,-24.51645 -34.858046,-22.68128 -6.109751,0.80946 -6.530821,-0.21807 -4.439468,-10.83349 3.985635,-20.23055 18.420589,-36.37061 36.715669,-41.05266 l 5.305941,-1.35789 3.03943,3.46172 c 4.093466,4.6622 9.214926,7.75907 16.180196,9.78393 15.6177,4.54019 33.59917,-4.75027 39.50743,-20.41226 2.79903,-7.41983 2.37944,-19.51989 -0.89707,-25.86929 -4.56145,-8.83943 -12.67671,-15.44697 -21.82438,-17.76965 l -4.29916,-1.09161 3.02509,-6.39656 c 11.79115,-24.93237 35.0261,-41.06208 64.64818,-44.87879 3.41894,-0.44052 6.62174,-0.54 7.11735,-0.22107 0.4956,0.31894 1.10586,4.19712 1.35612,8.61819 0.55354,9.77862 3.75251,16.42624 11.0711,23.00628 12.43551,11.18059 31.22938,11.1383 43.66692,-0.0983 5.05132,-4.56356 8.53075,-10.30375 10.12827,-16.70908 l 1.18785,-4.76277 9.57878,5.04274 c 5.26832,2.7735 10.09684,4.84393 10.73002,4.60096 0.63319,-0.24298 1.43626,-2.86682 1.78461,-5.83076 0.34836,-2.96394 1.51372,-7.94775 2.58969,-11.07513 2.145,-6.23453 1.602,-7.81408 -3.18288,-9.25885 -1.23424,-0.37267 -5.46073,-2.00006 -9.3922,-3.61641 l -7.14812,-2.93883 3.37897,-5.02113 c 4.13288,-6.14144 5.64462,-11.43837 5.60057,-19.62371 -0.0593,-11.00996 -7.33622,-22.76346 -17.18285,-27.75312 -5.84887,-2.96385 -16.01517,-4.84006 -21.37576,-3.94493 -10.51262,1.75541 -21.4086,10.52347 -25.56362,20.57119 -2.04125,4.93618 -2.52512,5.46806 -3.94389,4.33524 -23.72633,-18.94449 -33.07959,-29.49307 -36.19138,-40.81654 -1.76482,-6.42199 -0.55627,-7.34069 4.24751,-3.22883 6.90165,5.90755 12.28283,8.01731 21.48168,8.42216 10.88008,0.47884 18.00505,-2.54377 25.77232,-10.93335 l 5.36326,-5.79296 7.16077,3.43171 c 15.29044,7.32775 29.91905,18.70816 55.46024,43.14566 C 310.62744,183.37756 315,186.71196 315,184.33948 c 0,-0.36328 -3.15488,-5.95515 -7.01085,-12.42637 C 288.25649,138.7971 277.95759,110.80519 277.66736,89.5 c -0.13249,-9.72576 0.91485,-12.918925 5.70499,-17.393657 3.10338,-2.899027 10.67861,-3.904687 16.05266,-2.131092 6.85721,2.263083 20.08787,16.502246 26.41795,28.431651 l 2.07312,3.906898 -4.94457,2.29085 c -20.15654,9.33867 -24.73745,38.29516 -8.43549,53.32179 7.77722,7.16879 11.58278,8.57356 23.22594,8.57356 11.19188,0 10.53361,-0.3749 11.78933,6.71437 0.9168,5.17589 2.49741,6.17688 8.61035,5.45289 10.42933,-1.2352 29.84324,2.89574 43.34571,9.22321 l 8.43978,3.95502 -3.42593,5.68933 c -6.18084,10.26429 -6.89205,20.60682 -2.13201,31.0041 3.28183,7.16846 8.74203,12.88702 15.45027,16.1813 4.84182,2.37772 6.88995,2.77978 14.16054,2.77978 4.675,0 9.66798,-0.32863 11.09552,-0.73028 l 2.59552,-0.73028 -0.835,5.32474 c -1.24138,7.91615 -3.33293,13.07998 -8.36186,20.64457 -10.34902,15.56715 -31.49737,29.76827 -53.41565,35.86863 -4.08181,1.13606 -7.80563,2.44972 -8.27517,2.91926 -0.46953,0.46953 -1.30779,7.34486 -1.8628,15.27852 -2.53113,36.18165 -9.81615,62.80261 -22.05393,80.58962 -1.68212,2.44487 -2.83724,5.02155 -2.56693,5.72595 0.2703,0.7044 5.14645,3.84608 10.83588,6.98151 12.36875,6.81637 14.25101,8.16086 13.38554,9.56123 C 374.09593,429.65379 363.22834,430 341.0623,430 h -32.81966 l -1.24966,-3.01696 c -1.9163,-4.62634 -10.88104,-12.21469 -17.05949,-14.44028 -7.68203,-2.76722 -17.85368,-2.60145 -24.69395,0.40242 C 259.84667,415.31344 249,425.71645 249,428.52049 c 0,1.15849 -3.96745,1.45701 -22.50087,1.693 l -22.50087,0.28651 8e-5,-6 c 1.6e-4,-11.4007 -8.42987,-23.64431 -19.82267,-28.79007 -7.40705,-3.34553 -18.84542,-3.04765 -26.97615,0.70252 C 145.78556,401.67694 138,413.42667 138,425.38777 v 5.31274 l -9.15362,0.64975 c -10.87621,0.77201 -26.4886,0.64204 -33.05435,-0.27518 z m 252.69783,-47.07017 c 6.70988,-3.2482 13.1054,-9.48051 16.20399,-15.79047 2.44371,-4.97637 2.80615,-6.87687 2.80615,-14.71444 0,-8.34335 -0.24866,-9.45858 -3.4081,-15.28522 -4.00311,-7.38254 -8.40716,-11.53063 -16.04627,-15.11367 -4.57205,-2.14447 -6.95009,-2.5923 -13.54563,-2.55094 -6.7489,0.0423 -8.90556,0.50087 -13.79048,2.93209 -6.47307,3.22163 -12.44137,9.13602 -15.81114,15.66833 -3.41647,6.62282 -3.79173,18.49433 -0.83269,26.34204 3.28494,8.71204 11.43926,16.62654 20.01654,19.42784 7.96089,2.59999 17.91695,2.22652 24.40763,-0.91556 z m -105.31419,-18.7462 c 16.5417,-7.3604 24.02308,-27.45998 16.39953,-44.05919 -3.57713,-7.78868 -10.47733,-14.2642 -18.37357,-17.24271 -7.90683,-2.98251 -19.52568,-2.42289 -26.70163,1.28609 -13.63585,7.04784 -21.05732,23.35557 -17.02061,37.4006 3.32337,11.56312 9.33888,18.39455 20.25081,22.99757 7.2274,3.04876 18.10161,2.88536 25.44547,-0.38236 z M 368,276.16606 c 2.475,-1.28367 6.46487,-4.20867 8.86639,-6.5 13.12607,-12.52386 13.72342,-33.35465 1.33486,-46.54999 -6.21482,-6.61955 -12.48855,-9.3526 -22.70125,-9.88943 -6.44855,-0.33897 -9.09515,-0.007 -13.64709,1.70977 -7.86474,2.96686 -14.09267,8.77389 -18.06616,16.8452 -2.89611,5.88283 -3.28455,7.62966 -3.2682,14.69736 0.0155,6.71163 0.47168,8.94992 2.79431,13.71118 3.31701,6.79969 11.83341,14.96812 17.92047,17.18826 6.64888,2.42506 21.00741,1.77471 26.76667,-1.21235 z"
       id="path3727"
       inkscape:connector-curvature="0" />
    <path
       style="fill:#97babb"
       d="m 137.30987,425.5 c 0.006,-3.3 0.1923,-4.52944 0.41486,-2.73209 0.22256,1.79735 0.21797,4.49735 -0.0102,6 -0.22818,1.50265 -0.41027,0.0321 -0.40466,-3.26791 z M 204.1883,425 c -0.24824,-8.49781 -4.15794,-16.91235 -10.61188,-22.83911 -5.9257,-5.44166 -11.42412,-7.89833 -20.1993,-9.02496 -5.18038,-0.66509 -5.88231,-0.91415 -2.84505,-1.00943 10.09402,-0.31668 21.83162,5.51418 27.99109,13.90504 4.80347,6.54365 6.66561,12.4119 6.21938,19.59946 l -0.36437,5.869 z M 90,429.6092 c 0,-1.022 3.958886,-8.96491 3.978038,-7.98132 C 94.00644,423.0865 91.123277,430 90.48658,430 90.218961,430 90,429.82414 90,429.6092 Z m 158.69346,-2.67793 c 3.42145,-5.81195 7.53165,-10.01941 12.6626,-12.96223 2.82917,-1.62265 5.81894,-2.9501 6.64394,-2.94989 0.825,2.1e-4 -0.75137,1.0488 -3.50304,2.3302 C 259.36305,415.7401 249,425.92546 249,428.58059 249,429.36126 248.52456,430 247.94346,430 c -0.58109,0 -0.24359,-1.38093 0.75,-3.06873 z m 58.33562,0.13893 c -0.68207,-1.64666 -3.39613,-5.01062 -6.03125,-7.47546 -4.97481,-4.65335 -9.66519,-7.11051 -16.49783,-8.64273 l -4,-0.897 4.233,0.37506 c 5.61961,0.49791 12.24224,3.80947 17.15711,8.57919 3.88574,3.77099 7.70951,9.72445 6.81823,10.61574 -0.24153,0.24152 -0.99719,-0.90814 -1.67926,-2.5548 z M 94.252183,416.5 c 0.0111,-2.2 0.215885,-2.98225 0.455078,-1.73834 0.239193,1.24391 0.230112,3.04391 -0.02018,4 C 94.436788,419.71775 94.241084,418.7 94.252183,416.5 Z m 43.821887,1.5 c -0.0589,-2.93063 3.83725,-9.94873 8.10031,-14.59106 4.3696,-4.75833 14.48783,-10.46811 18.32562,-10.34126 1.1,0.0364 0.2,0.63687 -2,1.33447 -10.84021,3.4373 -18.78551,10.50954 -22.41775,19.9544 -1.08792,2.8289 -1.9916,4.46845 -2.00818,3.64345 z M 94.160037,408.37573 C 93.528226,396.04139 82.407646,383.28165 69,379.50713 c -4.321494,-1.21659 -4.678938,-1.44743 -1.668165,-1.07734 10.036197,1.2337 21.771187,10.88415 25.56487,21.02367 1.212357,3.24032 2.028579,7.27637 1.813827,8.96901 L 94.320074,411.5 Z M 270.75,410.33772 c 0.6875,-0.27741 1.8125,-0.27741 2.5,0 0.6875,0.27741 0.125,0.50439 -1.25,0.50439 -1.375,0 -1.9375,-0.22698 -1.25,-0.50439 z m 5.51903,-1.03071 c 0.97297,-0.25354 2.32297,-0.23687 3,0.0371 0.67703,0.27393 -0.11903,0.48137 -1.76903,0.46099 -1.65,-0.0204 -2.20394,-0.2445 -1.23097,-0.49804 z m 48.53192,-23.17235 c -10.57658,-3.50143 -18.86402,-11.78704 -22.38119,-22.37624 -2.39659,-7.21547 -1.57581,-18.63614 1.81671,-25.27822 4.57323,-8.95375 17.34776,-18.69661 24.09644,-18.37784 1.57631,0.0745 1.333,0.30202 -0.89252,0.83476 -5.5667,1.33254 -12.51914,5.42465 -16.43611,9.67406 -6.16022,6.68305 -8.2893,11.75197 -8.77388,20.88882 -0.58709,11.06984 2.0174,17.9078 9.77599,25.66639 4.82934,4.82934 6.77063,6.01206 12.94773,7.88829 12.33261,3.74592 22.61021,1.48213 32.40208,-7.13702 2.54037,-2.23612 5.76452,-6.4997 7.33765,-9.70322 2.44371,-4.97637 2.80615,-6.87687 2.80615,-14.71444 0,-8.34335 -0.24866,-9.45858 -3.4081,-15.28522 -5.66064,-10.43937 -14.61176,-16.41378 -27.30543,-18.22499 L 330.5,319.0928 l 6.19138,0.35345 c 11.93034,0.68109 22.31619,7.54859 28.40952,18.78541 3.15116,5.81112 3.39873,6.92481 3.39405,15.26834 -0.006,10.76265 -1.95773,15.87319 -8.89364,23.28823 -9.1538,9.78615 -22.57997,13.39206 -34.80036,9.34643 z M 55.5,378 c 1.65,-0.41985 4.125,-0.76337 5.5,-0.76337 2.230007,0 2.176008,0.0824 -0.5,0.76337 -1.65,0.41985 -4.125,0.76337 -5.5,0.76337 -2.230007,0 -2.176008,-0.0824 0.5,-0.76337 z m 164.44532,-10.39048 c -7.4075,-2.85403 -11.84725,-5.67702 -15.33311,-9.74946 -4.24474,-4.95903 -7.35399,-11.03792 -8.12441,-15.88405 -0.33834,-2.12823 0.22824,-1.14958 1.46125,2.52399 3.05467,9.10093 8.33236,15.34058 16.4937,19.5 6.28639,3.20385 7.59471,3.49835 15.46236,3.48053 6.63185,-0.015 9.66279,-0.50856 13.27056,-2.16089 16.6181,-7.61096 24.02064,-27.52622 16.39953,-44.12012 -3.49176,-7.6028 -10.42233,-14.23088 -17.8772,-17.09692 -2.8589,-1.09912 -4.523,-2.01195 -3.698,-2.02853 3.02155,-0.0607 10.08909,3.92912 14.85239,8.38463 14.30924,13.38462 14.30257,35.70423 -0.0147,49.09634 -2.69678,2.52253 -7.026,5.5309 -9.62047,6.68528 -5.89818,2.62432 -18.14429,3.34481 -23.27191,1.3692 z M 113.62399,339.42373 c -2.68181,-0.85676 -6.50681,-2.58921 -8.5,-3.8499 C 101.14356,333.05622 95,327.1102 95,325.77537 c 0,-0.46473 1.443464,0.79905 3.207697,2.8084 4.256983,4.84844 9.302903,7.92738 16.348463,9.97558 15.6177,4.54019 33.59917,-4.75027 39.50743,-20.41226 2.79903,-7.41983 2.37944,-19.51989 -0.89707,-25.86929 -4.58779,-8.89047 -12.53544,-15.33267 -22.09587,-17.91043 -3.23898,-0.87333 -3.81597,-1.25205 -1.98037,-1.29988 4.06978,-0.10604 14.30611,5.55401 18.73594,10.35981 7.10084,7.7035 8.64643,11.73168 8.661,22.5727 0.011,8.18863 -0.34789,10.25922 -2.60002,15 -7.00406,14.74369 -25.4138,23.16766 -40.26321,18.42373 z m 81.91983,-6.91483 c 0.67752,-7.65401 4.4158,-15.83078 9.75693,-21.34142 3.96292,-4.08869 11.37719,-8.82287 12.32822,-7.87184 0.23934,0.23933 -1.04177,1.0443 -2.84691,1.7888 -4.89902,2.02055 -11.63066,8.68327 -14.50602,14.35752 -1.39973,2.76223 -3.15642,8.1803 -3.90375,12.04014 L 195.0135,338.5 Z M 220.5,301.92903 c 1.1,-0.43365 5.15,-0.78456 9,-0.7798 8.86395,0.011 7.39531,0.56514 -3,1.132 -4.43345,0.24176 -7.10836,0.0847 -6,-0.3522 z m 121.2626,-23.39636 c -5.87268,-2.23011 -12.44035,-7.20394 -15.62568,-11.83366 -3.3027,-4.80031 -6.15463,-11.14433 -6.10084,-13.57113 0.0198,-0.89534 0.88347,0.72658 1.91918,3.60426 2.33814,6.4964 4.80494,10.00657 10.64452,15.14678 6.25046,5.50187 12.46493,7.40939 22.70984,6.97072 6.13259,-0.26259 9.32098,-0.93695 12.69038,-2.68411 6.63133,-3.43859 12.85057,-9.87006 16.1156,-16.66553 1.58555,-3.3 2.88318,-5.42254 2.88361,-4.71676 0.002,2.70525 -5.30414,11.57432 -9.33648,15.60666 -6.7232,6.72321 -12.54158,9.06825 -23.16273,9.33554 -5.86325,0.14755 -10.30259,-0.26816 -12.7374,-1.19277 z M 237.24855,261.99575 c 16.10206,-1.87209 25.95397,-9.79592 30.84844,-24.8112 1.15823,-3.55323 1.64073,-4.37229 1.2869,-2.18455 -0.95712,5.91792 -4.88738,13.29149 -9.48534,17.79547 -6.56908,6.43482 -13.14219,9.2687 -22.55127,9.7226 L 229.5,262.89662 Z m -15.91283,-2.4198 c -6.4689,-3.01195 -12.46524,-8.94054 -15.97227,-15.7918 -2.21312,-4.32349 -2.75051,-6.82944 -2.95596,-13.78415 l -0.25109,-8.5 0.75857,8.56477 c 0.5827,6.57899 1.42532,9.7898 3.63426,13.84835 3.66514,6.73407 11.09675,13.42536 17.75277,15.98428 2.8589,1.09912 4.523,2.01744 3.698,2.04073 -0.825,0.0233 -3.82393,-1.0397 -6.66428,-2.36218 z M 387.1987,246.28751 c -0.26492,-9.61622 -3.08174,-16.87049 -8.99745,-23.17144 -6.21482,-6.61955 -12.48855,-9.3526 -22.70125,-9.88943 -6.44855,-0.33897 -9.09515,-0.007 -13.64709,1.70977 -11.77868,4.44334 -20.09159,15.72369 -21.86892,29.67542 l -0.8775,6.88817 0.31874,-6.58968 c 0.65841,-13.61253 9.7332,-26.18608 22.32811,-30.93666 8.10577,-3.05736 19.65848,-2.47464 27.55752,1.39 11.86364,5.80434 19.06017,17.92295 18.42869,31.03303 L 387.39739,253.5 Z M 424.5,247.666 c -5.78875,-1.90571 -8.23617,-3.38362 -13.29503,-8.0284 -4.56248,-4.18903 -10.26349,-14.39205 -10.13453,-18.1376 0.0379,-1.1 0.71037,0.0834 1.49443,2.62983 3.26723,10.61099 12.08177,19.54874 22.17218,22.48211 5.53666,1.60955 17.03301,1.57327 21.76295,-0.0687 l 2,-0.69428 -2,1.26668 c -2.83302,1.79427 -17.1347,2.15203 -22,0.55033 z m -23.88629,-35.03435 c 0.4115,-6.34869 4.33332,-16.36875 7.5439,-19.27428 1.15707,-1.04714 0.52929,0.58094 -1.56521,4.05919 -3.07795,5.11145 -4.33829,9.05508 -5.93905,18.58344 -0.231,1.375 -0.24883,-0.14076 -0.0396,-3.36835 z M 276.19718,206 c 3.90218,-5.32107 5.70975,-9.37951 6.77132,-15.20323 l 0.9655,-5.29677 -0.42414,5.28592 c -0.44829,5.58694 -4.26417,13.83132 -7.84158,16.94209 -1.53056,1.33091 -1.3989,0.90078 0.5289,-1.72801 z m 7.03482,-25 c 0,-1.925 0.2058,-2.7125 0.45733,-1.75 0.25152,0.9625 0.25152,2.5375 0,3.5 -0.25153,0.9625 -0.45733,0.175 -0.45733,-1.75 z m -66.66248,-4 c 2.37516,-8.61191 11.52511,-19.47029 19.05973,-22.61845 4.88271,-2.04013 5.30686,-1.17946 0.47035,0.95441 -6.60692,2.91496 -12.79093,9.22525 -16.6543,16.99437 -1.96091,3.94332 -3.25501,6.04467 -2.87578,4.66967 z m 64.10347,-4.46415 C 278.28066,166.7361 271.80223,159.46143 266.62821,156.76488 264.3577,155.58156 260.025,154.02476 257,153.30533 l -5.5,-1.30806 4.7532,0.48267 c 6.10769,0.62022 12.1281,3.65924 17.58099,8.87464 4.19702,4.01423 9.59801,12.86691 8.97276,14.70711 -0.16882,0.49687 -1.1291,-1.08976 -2.13396,-3.52584 z m 47.32054,-5.47019 c -8.56917,-2.60662 -17.13981,-10.13233 -21.14349,-18.56566 -1.56665,-3.3 -2.80361,-7.125 -2.7488,-8.5 0.0754,-1.89066 0.31531,-1.58499 0.98443,1.25408 2.26332,9.60326 8.92698,18.04446 18.11927,22.95261 3.6727,1.961 5.77491,2.29331 14.50776,2.29331 5.61698,0 9.44198,0.30587 8.5,0.67971 -2.30878,0.91628 -15.09514,0.83624 -18.21917,-0.11405 z M 241.75,152.33772 c 0.6875,-0.27741 1.8125,-0.27741 2.5,0 0.6875,0.27741 0.125,0.50439 -1.25,0.50439 -1.375,0 -1.9375,-0.22698 -1.25,-0.50439 z m 5.51903,-1.03071 c 0.97297,-0.25354 2.32297,-0.23687 3,0.0371 0.67703,0.27393 -0.11903,0.48137 -1.76903,0.46099 -1.65,-0.0204 -2.20394,-0.2445 -1.23097,-0.49804 z M 207,142.0941 c 10.6709,-0.88093 16.73309,-3.83332 23.84177,-11.61135 2.83703,-3.10416 5.15823,-5.17778 5.15823,-4.60806 0,2.08789 -10.64364,11.78416 -15.5,14.12037 -3.90786,1.87992 -6.85664,2.4485 -13.5,2.60303 l -8.5,0.19772 z m -16.59192,-2.57803 c -2.74153,-1.36617 -6.54238,-4.17772 -8.44634,-6.24791 -2.99695,-3.2586 -3.05895,-3.41662 -0.46174,-1.17695 4.78068,4.12257 9.12475,6.87755 13.20696,8.37577 2.08617,0.76566 3.09389,1.4238 2.23938,1.46256 -0.85451,0.0387 -3.79672,-1.04731 -6.53826,-2.41347 z M 303.19495,134.5 c 0.0204,-1.65 0.2445,-2.20394 0.49804,-1.23097 0.25354,0.97297 0.23687,2.32297 -0.0371,3 -0.27393,0.67703 -0.48137,-0.11903 -0.46099,-1.76903 z m 0.87086,-5.21249 c -0.11483,-3.86039 3.82084,-12.79509 7.56077,-17.16435 3.61906,-4.22807 12.56051,-10.10473 15.37342,-10.10401 0.825,2.1e-4 -0.82393,1.08242 -3.66428,2.4049 -5.64007,2.62604 -12.33008,8.73058 -14.79795,13.50292 -0.86273,1.66833 -2.20705,5.40476 -2.98737,8.30318 -0.78033,2.89842 -1.44839,4.27423 -1.48459,3.05736 z"
       id="path3725"
       inkscape:connector-curvature="0" />
  </g>
</svg>
