<svg xmlns="http://www.w3.org/2000/svg" width="1980" height="1080"><path d="M1116,595L1210,738L1197,559Z" fill="#e9f79d" stroke="#e9f79d" stroke-width="1.51"/><path d="M1210,738L1333,636L1197,559Z" fill="#def29b" stroke="#def29b" stroke-width="1.51"/><path d="M1116,595L1022,637L1210,738Z" fill="#e8f69f" stroke="#e8f69f" stroke-width="1.51"/><path d="M1076,831L1184,862L1210,738Z" fill="#bde3a2" stroke="#bde3a2" stroke-width="1.51"/><path d="M1386,869L1423,633L1333,636Z" fill="#b8e2a2" stroke="#b8e2a2" stroke-width="1.51"/><path d="M1022,637L1076,831L1210,738Z" fill="#d4eea6" stroke="#d4eea6" stroke-width="1.51"/><path d="M1333,636L1396,561L1197,559Z" fill="#dcf1a7" stroke="#dcf1a7" stroke-width="1.51"/><path d="M1423,633L1396,561L1333,636Z" fill="#ceeba5" stroke="#ceeba5" stroke-width="1.51"/><path d="M1386,869L1333,636L1210,738Z" fill="#bae2a2" stroke="#bae2a2" stroke-width="1.51"/><path d="M1116,595L988,491L1022,637Z" fill="#f8fcb4" stroke="#f8fcb4" stroke-width="1.51"/><path d="M1197,559L988,491L1116,595Z" fill="#f7fcb3" stroke="#f7fcb3" stroke-width="1.51"/><path d="M1199,371L988,491L1197,559Z" fill="#f7f2a1" stroke="#f7f2a1" stroke-width="1.51"/><path d="M1076,831L1101,890L1184,862Z" fill="#b1dda6" stroke="#b1dda6" stroke-width="1.51"/><path d="M1022,637L922,711L1076,831Z" fill="#ddf1ae" stroke="#ddf1ae" stroke-width="1.51"/><path d="M1076,831L933,935L1101,890Z" fill="#b2d9b1" stroke="#b2d9b1" stroke-width="1.51"/><path d="M988,491L922,711L1022,637Z" fill="#f7fbb1" stroke="#f7fbb1" stroke-width="1.51"/><path d="M1374,430L1199,371L1197,559Z" fill="#e9ea98" stroke="#e9ea98" stroke-width="1.51"/><path d="M1184,862L1386,869L1210,738Z" fill="#acdca1" stroke="#acdca1" stroke-width="1.51"/><path d="M1101,890L1171,935L1184,862Z" fill="#aad3a7" stroke="#aad3a7" stroke-width="1.51"/><path d="M1396,561L1374,430L1197,559Z" fill="#dfefaa" stroke="#dfefaa" stroke-width="1.51"/><path d="M1495,547L1374,430L1396,561Z" fill="#d1e8ab" stroke="#d1e8ab" stroke-width="1.51"/><path d="M1171,935L1386,869L1184,862Z" fill="#9fd1a4" stroke="#9fd1a4" stroke-width="1.51"/><path d="M1199,371L996,403L988,491Z" fill="#fbeb9c" stroke="#fbeb9c" stroke-width="1.51"/><path d="M748,500L746,716L922,711Z" fill="#f3ec94" stroke="#f3ec94" stroke-width="1.51"/><path d="M1423,633L1495,547L1396,561Z" fill="#c9e9aa" stroke="#c9e9aa" stroke-width="1.51"/><path d="M1564,701L1495,547L1423,633Z" fill="#bce2a3" stroke="#bce2a3" stroke-width="1.51"/><path d="M922,711L900,822L1076,831Z" fill="#cde8ae" stroke="#cde8ae" stroke-width="1.51"/><path d="M1101,890L1056,1085L1171,935Z" fill="#a2bfb5" stroke="#a2bfb5" stroke-width="1.51"/><path d="M1386,869L1539,779L1423,633Z" fill="#a0d8a4" stroke="#a0d8a4" stroke-width="1.51"/><path d="M1539,779L1564,701L1423,633Z" fill="#a7daa2" stroke="#a7daa2" stroke-width="1.51"/><path d="M900,822L933,935L1076,831Z" fill="#b8dfb0" stroke="#b8dfb0" stroke-width="1.51"/><path d="M1386,869L1503,958L1539,779Z" fill="#7ac8a6" stroke="#7ac8a6" stroke-width="1.51"/><path d="M1171,935L1327,1024L1386,869Z" fill="#90bead" stroke="#90bead" stroke-width="1.51"/><path d="M1298,1101L1327,1024L1196,1121Z" fill="#9c9aa3" stroke="#9c9aa3" stroke-width="1.51"/><path d="M996,403L905,337L988,491Z" fill="#ffe89d" stroke="#ffe89d" stroke-width="1.51"/><path d="M746,716L818,874L900,822Z" fill="#cadb9c" stroke="#cadb9c" stroke-width="1.51"/><path d="M1021,237L905,337L996,403Z" fill="#ffd68e" stroke="#ffd68e" stroke-width="1.51"/><path d="M1199,371L1021,237L996,403Z" fill="#fcd88a" stroke="#fcd88a" stroke-width="1.51"/><path d="M1374,430L1303,237L1199,371Z" fill="#e7d184" stroke="#e7d184" stroke-width="1.51"/><path d="M1438,288L1303,237L1374,430Z" fill="#ddc681" stroke="#ddc681" stroke-width="1.51"/><path d="M1495,547L1530,344L1374,430Z" fill="#cbda9a" stroke="#cbda9a" stroke-width="1.51"/><path d="M1564,701L1591,500L1495,547Z" fill="#b8e1ab" stroke="#b8e1ab" stroke-width="1.51"/><path d="M900,822L818,874L933,935Z" fill="#b8d5a6" stroke="#b8d5a6" stroke-width="1.51"/><path d="M746,716L900,822L922,711Z" fill="#d9e4a0" stroke="#d9e4a0" stroke-width="1.51"/><path d="M1303,237L1151,217L1199,371Z" fill="#f1c376" stroke="#f1c376" stroke-width="1.51"/><path d="M1530,344L1438,288L1374,430Z" fill="#d1ca89" stroke="#d1ca89" stroke-width="1.51"/><path d="M1539,779L1699,781L1564,701Z" fill="#8acda6" stroke="#8acda6" stroke-width="1.51"/><path d="M1327,1024L1503,958L1386,869Z" fill="#7bb6b0" stroke="#7bb6b0" stroke-width="1.51"/><path d="M1151,217L1021,237L1199,371Z" fill="#f8c67b" stroke="#f8c67b" stroke-width="1.51"/><path d="M748,500L922,711L988,491Z" fill="#fcf6ac" stroke="#fcf6ac" stroke-width="1.51"/><path d="M933,935L1056,1085L1101,890Z" fill="#a6c1bc" stroke="#a6c1bc" stroke-width="1.51"/><path d="M958,1169L1056,1085L933,935Z" fill="#b2a7b4" stroke="#b2a7b4" stroke-width="1.51"/><path d="M1591,400L1530,344L1495,547Z" fill="#c1d498" stroke="#c1d498" stroke-width="1.51"/><path d="M1196,1121L1327,1024L1171,935Z" fill="#9daba8" stroke="#9daba8" stroke-width="1.51"/><path d="M1327,1024L1467,1106L1503,958Z" fill="#7d9fab" stroke="#7d9fab" stroke-width="1.51"/><path d="M905,337L748,500L988,491Z" fill="#ffe899" stroke="#ffe899" stroke-width="1.51"/><path d="M1056,1085L1196,1121L1171,935Z" fill="#a8a9a9" stroke="#a8a9a9" stroke-width="1.51"/><path d="M1591,500L1591,400L1495,547Z" fill="#bddaa4" stroke="#bddaa4" stroke-width="1.51"/><path d="M1503,958L1610,876L1539,779Z" fill="#6cc2a6" stroke="#6cc2a6" stroke-width="1.51"/><path d="M1564,701L1764,645L1591,500Z" fill="#abd4a9" stroke="#abd4a9" stroke-width="1.51"/><path d="M1591,500L1743,413L1591,400Z" fill="#b7ca9f" stroke="#b7ca9f" stroke-width="1.51"/><path d="M1151,217L1063,171L1021,237Z" fill="#fab577" stroke="#fab577" stroke-width="1.51"/><path d="M784,226L744,372L905,337Z" fill="#fec576" stroke="#fec576" stroke-width="1.51"/><path d="M905,337L744,372L748,500Z" fill="#feda86" stroke="#feda86" stroke-width="1.51"/><path d="M1260,59L1063,171L1151,217Z" fill="#eda973" stroke="#eda973" stroke-width="1.51"/><path d="M818,874L797,985L933,935Z" fill="#b2c2a9" stroke="#b2c2a9" stroke-width="1.51"/><path d="M717,1073L797,985L617,987Z" fill="#b29d99" stroke="#b29d99" stroke-width="1.51"/><path d="M748,500L651,586L746,716Z" fill="#f9e391" stroke="#f9e391" stroke-width="1.51"/><path d="M892,204L905,337L1021,237Z" fill="#ffc07f" stroke="#ffc07f" stroke-width="1.51"/><path d="M1610,876L1699,781L1539,779Z" fill="#77c3a7" stroke="#77c3a7" stroke-width="1.51"/><path d="M1287,1199L1467,1106L1298,1101Z" fill="#9096a4" stroke="#9096a4" stroke-width="1.51"/><path d="M1298,1101L1467,1106L1327,1024Z" fill="#8e97a5" stroke="#8e97a5" stroke-width="1.51"/><path d="M1503,958L1642,1015L1610,876Z" fill="#58abaf" stroke="#58abaf" stroke-width="1.51"/><path d="M1610,876L1750,921L1699,781Z" fill="#5fb3ac" stroke="#5fb3ac" stroke-width="1.51"/><path d="M1063,171L892,204L1021,237Z" fill="#ffb680" stroke="#ffb680" stroke-width="1.51"/><path d="M665,451L651,586L748,500Z" fill="#ffde93" stroke="#ffde93" stroke-width="1.51"/><path d="M746,716L575,831L818,874Z" fill="#cccf90" stroke="#cccf90" stroke-width="1.51"/><path d="M1196,1121L1287,1199L1298,1101Z" fill="#9e9ba3" stroke="#9e9ba3" stroke-width="1.51"/><path d="M1158,1287L1287,1199L1196,1121Z" fill="#a59da2" stroke="#a59da2" stroke-width="1.51"/><path d="M1052,1257L1196,1121L1056,1085Z" fill="#ada0a9" stroke="#ada0a9" stroke-width="1.51"/><path d="M744,372L665,451L748,500Z" fill="#fed985" stroke="#fed985" stroke-width="1.51"/><path d="M697,261L665,451L744,372Z" fill="#fec473" stroke="#fec473" stroke-width="1.51"/><path d="M864,1144L958,1169L933,935Z" fill="#b49eaa" stroke="#b49eaa" stroke-width="1.51"/><path d="M1699,781L1764,645L1564,701Z" fill="#94c6a9" stroke="#94c6a9" stroke-width="1.51"/><path d="M1627,1092L1642,1015L1503,958Z" fill="#5f96ac" stroke="#5f96ac" stroke-width="1.51"/><path d="M1699,781L1873,766L1764,645Z" fill="#84b5b1" stroke="#84b5b1" stroke-width="1.51"/><path d="M892,204L784,226L905,337Z" fill="#ffb975" stroke="#ffb975" stroke-width="1.51"/><path d="M797,985L864,1144L933,935Z" fill="#b0aaaa" stroke="#b0aaaa" stroke-width="1.51"/><path d="M1303,237L1260,59L1151,217Z" fill="#e7a970" stroke="#e7a970" stroke-width="1.51"/><path d="M925,79L799,188L892,204Z" fill="#f6a473" stroke="#f6a473" stroke-width="1.51"/><path d="M892,204L799,188L784,226Z" fill="#fca96b" stroke="#fca96b" stroke-width="1.51"/><path d="M1348,64L1260,59L1303,237Z" fill="#d89d75" stroke="#d89d75" stroke-width="1.51"/><path d="M1348,64L1303,237L1438,288Z" fill="#dba773" stroke="#dba773" stroke-width="1.51"/><path d="M1592,200L1438,288L1530,344Z" fill="#c9b27d" stroke="#c9b27d" stroke-width="1.51"/><path d="M1591,400L1592,200L1530,344Z" fill="#c1b982" stroke="#c1b982" stroke-width="1.51"/><path d="M1796,561L1743,413L1591,500Z" fill="#b0c6b0" stroke="#b0c6b0" stroke-width="1.51"/><path d="M1777,246L1592,200L1591,400Z" fill="#bca483" stroke="#bca483" stroke-width="1.51"/><path d="M925,79L892,204L1063,171Z" fill="#f7aa7f" stroke="#f7aa7f" stroke-width="1.51"/><path d="M784,226L697,261L744,372Z" fill="#feb66b" stroke="#feb66b" stroke-width="1.51"/><path d="M1538,150L1348,64L1438,288Z" fill="#cd9d75" stroke="#cd9d75" stroke-width="1.51"/><path d="M1592,200L1538,150L1438,288Z" fill="#c9a173" stroke="#c9a173" stroke-width="1.51"/><path d="M651,586L579,671L746,716Z" fill="#f2d984" stroke="#f2d984" stroke-width="1.51"/><path d="M797,985L717,1073L864,1144Z" fill="#b4989c" stroke="#b4989c" stroke-width="1.51"/><path d="M568,653L579,671L651,586Z" fill="#f6d37f" stroke="#f6d37f" stroke-width="1.51"/><path d="M1764,645L1796,561L1591,500Z" fill="#aacab7" stroke="#aacab7" stroke-width="1.51"/><path d="M1833,519L1796,561L1934,662Z" fill="#a9b5b4" stroke="#a9b5b4" stroke-width="1.51"/><path d="M617,987L797,985L818,874Z" fill="#b1b39f" stroke="#b1b39f" stroke-width="1.51"/><path d="M489,564L568,653L651,586Z" fill="#fad082" stroke="#fad082" stroke-width="1.51"/><path d="M856,1349L1052,1257L958,1169Z" fill="#b3a1af" stroke="#b3a1af" stroke-width="1.51"/><path d="M958,1169L1052,1257L1056,1085Z" fill="#b1a2b0" stroke="#b1a2b0" stroke-width="1.51"/><path d="M1467,1106L1627,1092L1503,958Z" fill="#6f93a8" stroke="#6f93a8" stroke-width="1.51"/><path d="M1642,1015L1750,921L1610,876Z" fill="#51a1b3" stroke="#51a1b3" stroke-width="1.51"/><path d="M1459,1249L1627,1092L1467,1106Z" fill="#758ca5" stroke="#758ca5" stroke-width="1.51"/><path d="M1789,1158L1750,921L1642,1015Z" fill="#4f81b3" stroke="#4f81b3" stroke-width="1.51"/><path d="M665,451L489,564L651,586Z" fill="#ffd78f" stroke="#ffd78f" stroke-width="1.51"/><path d="M685,157L697,261L784,226Z" fill="#fb9f5f" stroke="#fb9f5f" stroke-width="1.51"/><path d="M799,188L685,157L784,226Z" fill="#f89f63" stroke="#f89f63" stroke-width="1.51"/><path d="M1016,-34L925,79L1063,171Z" fill="#e79d81" stroke="#e79d81" stroke-width="1.51"/><path d="M575,831L746,716L579,671Z" fill="#dece86" stroke="#dece86" stroke-width="1.51"/><path d="M864,1144L811,1255L958,1169Z" fill="#b49aa5" stroke="#b49aa5" stroke-width="1.51"/><path d="M1052,1257L1158,1287L1196,1121Z" fill="#aca0a6" stroke="#aca0a6" stroke-width="1.51"/><path d="M1287,1199L1459,1249L1467,1106Z" fill="#8893a5" stroke="#8893a5" stroke-width="1.51"/><path d="M527,879L575,831L312,805Z" fill="#c7ab79" stroke="#c7ab79" stroke-width="1.51"/><path d="M1796,561L1833,519L1743,413Z" fill="#abbab6" stroke="#abbab6" stroke-width="1.51"/><path d="M1769,148L1577,109L1592,200Z" fill="#b4887b" stroke="#b4887b" stroke-width="1.51"/><path d="M1934,662L1796,561L1764,645Z" fill="#a3b6ae" stroke="#a3b6ae" stroke-width="1.51"/><path d="M1267,1418L1459,1249L1287,1199Z" fill="#9297a4" stroke="#9297a4" stroke-width="1.51"/><path d="M575,831L617,987L818,874Z" fill="#bab990" stroke="#bab990" stroke-width="1.51"/><path d="M1592,200L1577,109L1538,150Z" fill="#bb9376" stroke="#bb9376" stroke-width="1.51"/><path d="M1538,150L1432,-31L1348,64Z" fill="#b98a74" stroke="#b98a74" stroke-width="1.51"/><path d="M1777,246L1591,400L1743,413Z" fill="#b6ad92" stroke="#b6ad92" stroke-width="1.51"/><path d="M1750,921L1873,766L1699,781Z" fill="#65aab1" stroke="#65aab1" stroke-width="1.51"/><path d="M1964,814L1873,766L1750,921Z" fill="#699dad" stroke="#699dad" stroke-width="1.51"/><path d="M354,640L575,831L579,671Z" fill="#e5bd79" stroke="#e5bd79" stroke-width="1.51"/><path d="M575,831L527,879L617,987Z" fill="#bbad87" stroke="#bbad87" stroke-width="1.51"/><path d="M512,404L489,564L665,451Z" fill="#ffc77d" stroke="#ffc77d" stroke-width="1.51"/><path d="M867,-3L685,157L799,188Z" fill="#ee956b" stroke="#ee956b" stroke-width="1.51"/><path d="M512,404L665,451L697,261Z" fill="#febd6d" stroke="#febd6d" stroke-width="1.51"/><path d="M568,653L354,640L579,671Z" fill="#f3c375" stroke="#f3c375" stroke-width="1.51"/><path d="M1260,59L1016,-34L1063,171Z" fill="#df9a77" stroke="#df9a77" stroke-width="1.51"/><path d="M925,79L867,-3L799,188Z" fill="#ea9674" stroke="#ea9674" stroke-width="1.51"/><path d="M1223,-61L1016,-34L1260,59Z" fill="#ca8c6e" stroke="#ca8c6e" stroke-width="1.51"/><path d="M1223,-61L1260,59L1399,-46Z" fill="#bc866f" stroke="#bc866f" stroke-width="1.51"/><path d="M1399,-46L1260,59L1348,64Z" fill="#bd8971" stroke="#bd8971" stroke-width="1.51"/><path d="M1902,269L1777,246L1743,413Z" fill="#b3938e" stroke="#b3938e" stroke-width="1.51"/><path d="M578,1108L717,1073L617,987Z" fill="#b5888d" stroke="#b5888d" stroke-width="1.51"/><path d="M723,1305L811,1255L717,1073Z" fill="#b58f96" stroke="#b58f96" stroke-width="1.51"/><path d="M717,1073L811,1255L864,1144Z" fill="#b5949b" stroke="#b5949b" stroke-width="1.51"/><path d="M1090,1391L1143,1389L1158,1287Z" fill="#aba0a6" stroke="#aba0a6" stroke-width="1.51"/><path d="M470,329L512,404L697,261Z" fill="#fdaa60" stroke="#fdaa60" stroke-width="1.51"/><path d="M1577,109L1432,-31L1538,150Z" fill="#b38876" stroke="#b38876" stroke-width="1.51"/><path d="M1402,-129L1432,-31L1506,-193Z" fill="#a97e71" stroke="#a97e71" stroke-width="1.51"/><path d="M1432,-31L1399,-46L1348,64Z" fill="#b08171" stroke="#b08171" stroke-width="1.51"/><path d="M1016,-34L867,-3L925,79Z" fill="#d78e78" stroke="#d78e78" stroke-width="1.51"/><path d="M1158,1287L1267,1418L1287,1199Z" fill="#a29ca2" stroke="#a29ca2" stroke-width="1.51"/><path d="M1090,1391L1158,1287L1052,1257Z" fill="#ada0a9" stroke="#ada0a9" stroke-width="1.51"/><path d="M1873,766L1934,662L1764,645Z" fill="#96adab" stroke="#96adab" stroke-width="1.51"/><path d="M1833,519L1952,457L1743,413Z" fill="#afadaa" stroke="#afadaa" stroke-width="1.51"/><path d="M856,1349L1090,1391L1052,1257Z" fill="#b2a3b2" stroke="#b2a3b2" stroke-width="1.51"/><path d="M1627,1092L1789,1158L1642,1015Z" fill="#5e7aaa" stroke="#5e7aaa" stroke-width="1.51"/><path d="M1873,766L1964,814L1934,662Z" fill="#8a9da9" stroke="#8a9da9" stroke-width="1.51"/><path d="M1459,1249L1645,1257L1627,1092Z" fill="#6b89a5" stroke="#6b89a5" stroke-width="1.51"/><path d="M1649,1329L1645,1257L1459,1249Z" fill="#6a88a5" stroke="#6a88a5" stroke-width="1.51"/><path d="M500,1081L578,1108L617,987Z" fill="#b67e86" stroke="#b67e86" stroke-width="1.51"/><path d="M1777,246L1769,148L1592,200Z" fill="#b5867d" stroke="#b5867d" stroke-width="1.51"/><path d="M1902,269L1769,148L1777,246Z" fill="#b37a80" stroke="#b37a80" stroke-width="1.51"/><path d="M869,-210L804,-157L867,-3Z" fill="#d3846c" stroke="#d3846c" stroke-width="1.51"/><path d="M1223,-61L1158,-117L1016,-34Z" fill="#cc8d71" stroke="#cc8d71" stroke-width="1.51"/><path d="M1402,-129L1158,-117L1223,-61Z" fill="#c0886e" stroke="#c0886e" stroke-width="1.51"/><path d="M1143,1389L1267,1418L1158,1287Z" fill="#a99fa1" stroke="#a99fa1" stroke-width="1.51"/><path d="M1090,1391L1267,1418L1143,1389Z" fill="#aa9fa3" stroke="#aa9fa3" stroke-width="1.51"/><path d="M811,1255L856,1349L958,1169Z" fill="#b49aa5" stroke="#b49aa5" stroke-width="1.51"/><path d="M723,1305L856,1349L811,1255Z" fill="#b5949b" stroke="#b5949b" stroke-width="1.51"/><path d="M1158,-117L1069,-120L1016,-34Z" fill="#cf8d75" stroke="#cf8d75" stroke-width="1.51"/><path d="M1645,1257L1789,1158L1627,1092Z" fill="#5e79aa" stroke="#5e79aa" stroke-width="1.51"/><path d="M472,166L470,329L697,261Z" fill="#fa9253" stroke="#fa9253" stroke-width="1.51"/><path d="M418,366L377,581L489,564Z" fill="#ffb879" stroke="#ffb879" stroke-width="1.51"/><path d="M418,366L470,329L414,274Z" fill="#fa9455" stroke="#fa9455" stroke-width="1.51"/><path d="M1934,662L1952,457L1833,519Z" fill="#afaeb7" stroke="#afaeb7" stroke-width="1.51"/><path d="M354,640L568,653L489,564Z" fill="#f8c177" stroke="#f8c177" stroke-width="1.51"/><path d="M382,931L464,965L527,879Z" fill="#b99580" stroke="#b99580" stroke-width="1.51"/><path d="M527,879L464,965L617,987Z" fill="#b69b89" stroke="#b69b89" stroke-width="1.51"/><path d="M2061,586L2018,453L1952,457Z" fill="#b49daa" stroke="#b49daa" stroke-width="1.51"/><path d="M1952,993L1964,814L1750,921Z" fill="#5789af" stroke="#5789af" stroke-width="1.51"/><path d="M591,1266L717,1073L578,1108Z" fill="#b68089" stroke="#b68089" stroke-width="1.51"/><path d="M591,1266L723,1305L717,1073Z" fill="#b6868e" stroke="#b6868e" stroke-width="1.51"/><path d="M1399,-46L1402,-129L1223,-61Z" fill="#b68470" stroke="#b68470" stroke-width="1.51"/><path d="M869,-210L1016,-34L1069,-120Z" fill="#d58f7d" stroke="#d58f7d" stroke-width="1.51"/><path d="M1432,-31L1402,-129L1399,-46Z" fill="#ad8171" stroke="#ad8171" stroke-width="1.51"/><path d="M1621,-40L1432,-31L1577,109Z" fill="#9f7b72" stroke="#9f7b72" stroke-width="1.51"/><path d="M1952,457L1902,269L1743,413Z" fill="#b29a98" stroke="#b29a98" stroke-width="1.51"/><path d="M1789,1158L1829,1150L1750,921Z" fill="#506caf" stroke="#506caf" stroke-width="1.51"/><path d="M1875,1298L1829,1150L1789,1158Z" fill="#5465ac" stroke="#5465ac" stroke-width="1.51"/><path d="M464,965L500,1081L617,987Z" fill="#b48688" stroke="#b48688" stroke-width="1.51"/><path d="M1267,1418L1426,1427L1459,1249Z" fill="#8b94a5" stroke="#8b94a5" stroke-width="1.51"/><path d="M1645,1257L1746,1258L1789,1158Z" fill="#5874ad" stroke="#5874ad" stroke-width="1.51"/><path d="M1790,4L1577,109L1769,148Z" fill="#a3737f" stroke="#a3737f" stroke-width="1.51"/><path d="M1790,4L1621,-40L1577,109Z" fill="#976f78" stroke="#976f78" stroke-width="1.51"/><path d="M418,366L489,564L512,404Z" fill="#feb66f" stroke="#feb66f" stroke-width="1.51"/><path d="M1426,1427L1649,1329L1459,1249Z" fill="#778da5" stroke="#778da5" stroke-width="1.51"/><path d="M470,329L418,366L512,404Z" fill="#fca45f" stroke="#fca45f" stroke-width="1.51"/><path d="M414,274L470,329L472,166Z" fill="#f8834c" stroke="#f8834c" stroke-width="1.51"/><path d="M867,-3L649,29L685,157Z" fill="#e08463" stroke="#e08463" stroke-width="1.51"/><path d="M728,-51L649,29L867,-3Z" fill="#d17a62" stroke="#d17a62" stroke-width="1.51"/><path d="M1649,1329L1746,1258L1645,1257Z" fill="#5f7aaa" stroke="#5f7aaa" stroke-width="1.51"/><path d="M377,581L354,640L489,564Z" fill="#fab876" stroke="#fab876" stroke-width="1.51"/><path d="M464,965L335,1064L500,1081Z" fill="#b4707d" stroke="#b4707d" stroke-width="1.51"/><path d="M245,687L354,640L228,589Z" fill="#eca971" stroke="#eca971" stroke-width="1.51"/><path d="M1829,1150L1952,993L1750,921Z" fill="#4b73b3" stroke="#4b73b3" stroke-width="1.51"/><path d="M1992,972L1952,993L1964,1137Z" fill="#595da8" stroke="#595da8" stroke-width="1.51"/><path d="M804,-157L728,-51L867,-3Z" fill="#d18067" stroke="#d18067" stroke-width="1.51"/><path d="M1952,457L1970,279L1902,269Z" fill="#b5848a" stroke="#b5848a" stroke-width="1.51"/><path d="M2061,586L1952,457L1934,662Z" fill="#b0a2ae" stroke="#b0a2ae" stroke-width="1.51"/><path d="M2057,717L1934,662L1964,814Z" fill="#9297a4" stroke="#9297a4" stroke-width="1.51"/><path d="M312,805L382,931L527,879Z" fill="#c19d76" stroke="#c19d76" stroke-width="1.51"/><path d="M723,1305L635,1327L856,1349Z" fill="#b58d95" stroke="#b58d95" stroke-width="1.51"/><path d="M500,1081L591,1266L578,1108Z" fill="#b67683" stroke="#b67683" stroke-width="1.51"/><path d="M554,1300L591,1266L500,1081Z" fill="#b67582" stroke="#b67582" stroke-width="1.51"/><path d="M228,589L354,640L377,581Z" fill="#f3ae76" stroke="#f3ae76" stroke-width="1.51"/><path d="M472,166L697,261L685,157Z" fill="#f78e56" stroke="#f78e56" stroke-width="1.51"/><path d="M523,-23L472,166L649,29Z" fill="#dc6952" stroke="#dc6952" stroke-width="1.51"/><path d="M649,29L472,166L685,157Z" fill="#ec7d59" stroke="#ec7d59" stroke-width="1.51"/><path d="M1899,89L1790,4L1769,148Z" fill="#9c6181" stroke="#9c6181" stroke-width="1.51"/><path d="M2018,453L1970,279L1952,457Z" fill="#b58c94" stroke="#b58c94" stroke-width="1.51"/><path d="M1952,993L1992,972L1964,814Z" fill="#5b79ac" stroke="#5b79ac" stroke-width="1.51"/><path d="M1964,1137L1952,993L1829,1150Z" fill="#5a59a6" stroke="#5a59a6" stroke-width="1.51"/><path d="M2126,717L2057,717L2148,776Z" fill="#9096a4" stroke="#9096a4" stroke-width="1.51"/><path d="M2175,122L1974,139L1970,279Z" fill="#af5677" stroke="#af5677" stroke-width="1.51"/><path d="M2057,717L2061,586L1934,662Z" fill="#a79ea1" stroke="#a79ea1" stroke-width="1.51"/><path d="M591,1266L635,1327L723,1305Z" fill="#b6828c" stroke="#b6828c" stroke-width="1.51"/><path d="M856,1349L322,1396L1090,1391Z" fill="#b59097" stroke="#b59097" stroke-width="1.51"/><path d="M1090,1391L322,1396L1267,1418Z" fill="#b49ca7" stroke="#b49ca7" stroke-width="1.51"/><path d="M1621,-40L1604,-148L1432,-31Z" fill="#9b7871" stroke="#9b7871" stroke-width="1.51"/><path d="M1899,89L1769,148L1902,269Z" fill="#ad697e" stroke="#ad697e" stroke-width="1.51"/><path d="M354,640L312,805L575,831Z" fill="#daac74" stroke="#daac74" stroke-width="1.51"/><path d="M245,687L312,805L354,640Z" fill="#dfa572" stroke="#dfa572" stroke-width="1.51"/><path d="M537,-108L523,-23L649,29Z" fill="#ce6151" stroke="#ce6151" stroke-width="1.51"/><path d="M869,-210L867,-3L1016,-34Z" fill="#d48a75" stroke="#d48a75" stroke-width="1.51"/><path d="M869,-210L1069,-120L1158,-117Z" fill="#d28f7a" stroke="#d28f7a" stroke-width="1.51"/><path d="M1805,-209L1604,-148L1621,-40Z" fill="#906877" stroke="#906877" stroke-width="1.51"/><path d="M1402,-129L1506,-193L1158,-117Z" fill="#b48370" stroke="#b48370" stroke-width="1.51"/><path d="M1604,-148L1506,-193L1432,-31Z" fill="#a07b71" stroke="#a07b71" stroke-width="1.51"/><path d="M1974,139L1899,89L1902,269Z" fill="#ad5d7a" stroke="#ad5d7a" stroke-width="1.51"/><path d="M1790,4L1823,-26L1621,-40Z" fill="#8a5e7b" stroke="#8a5e7b" stroke-width="1.51"/><path d="M591,1266L554,1300L635,1327Z" fill="#b67c86" stroke="#b67c86" stroke-width="1.51"/><path d="M451,1314L554,1300L500,1081Z" fill="#b66e7e" stroke="#b66e7e" stroke-width="1.51"/><path d="M335,1064L464,965L382,931Z" fill="#b37a7f" stroke="#b37a7f" stroke-width="1.51"/><path d="M2148,776L2057,717L1964,814Z" fill="#8793a5" stroke="#8793a5" stroke-width="1.51"/><path d="M1875,1298L1964,1137L1829,1150Z" fill="#595da8" stroke="#595da8" stroke-width="1.51"/><path d="M1875,1298L1789,1158L1746,1258Z" fill="#5269ae" stroke="#5269ae" stroke-width="1.51"/><path d="M1506,-193L869,-210L1158,-117Z" fill="#ca8c6d" stroke="#ca8c6d" stroke-width="1.51"/><path d="M1899,89L1823,-26L1790,4Z" fill="#8d537b" stroke="#8d537b" stroke-width="1.51"/><path d="M1649,1329L1694,1431L1746,1258Z" fill="#5d79ab" stroke="#5d79ab" stroke-width="1.51"/><path d="M1426,1427L1694,1431L1649,1329Z" fill="#6988a5" stroke="#6988a5" stroke-width="1.51"/><path d="M1899,89L1889,-128L1823,-26Z" fill="#884a77" stroke="#884a77" stroke-width="1.51"/><path d="M1970,279L1974,139L1902,269Z" fill="#b56679" stroke="#b56679" stroke-width="1.51"/><path d="M2192,339L1970,279L2018,453Z" fill="#b6838c" stroke="#b6838c" stroke-width="1.51"/><path d="M2057,717L2126,717L2061,586Z" fill="#a29ca2" stroke="#a29ca2" stroke-width="1.51"/><path d="M2061,586L2176,598L2018,453Z" fill="#b2a3b2" stroke="#b2a3b2" stroke-width="1.51"/><path d="M2148,776L1964,814L1992,972Z" fill="#6d89a5" stroke="#6d89a5" stroke-width="1.51"/><path d="M1694,1431L1875,1298L1746,1258Z" fill="#526eaf" stroke="#526eaf" stroke-width="1.51"/><path d="M216,944L335,1064L382,931Z" fill="#ac7482" stroke="#ac7482" stroke-width="1.51"/><path d="M280,341L377,581L418,366Z" fill="#f9a467" stroke="#f9a467" stroke-width="1.51"/><path d="M677,-152L728,-51L804,-157Z" fill="#d17960" stroke="#d17960" stroke-width="1.51"/><path d="M677,-152L649,29L728,-51Z" fill="#d0725b" stroke="#d0725b" stroke-width="1.51"/><path d="M243,275L280,341L414,274Z" fill="#f27d51" stroke="#f27d51" stroke-width="1.51"/><path d="M414,274L280,341L418,366Z" fill="#f78c53" stroke="#f78c53" stroke-width="1.51"/><path d="M216,944L382,931L312,805Z" fill="#b78c79" stroke="#b78c79" stroke-width="1.51"/><path d="M869,-210L677,-152L804,-157Z" fill="#d17f65" stroke="#d17f65" stroke-width="1.51"/><path d="M315,164L414,274L472,166Z" fill="#f26b45" stroke="#f26b45" stroke-width="1.51"/><path d="M280,341L228,589L377,581Z" fill="#f7a979" stroke="#f7a979" stroke-width="1.51"/><path d="M2126,717L2176,598L2061,586Z" fill="#aa9fa3" stroke="#aa9fa3" stroke-width="1.51"/><path d="M2202,918L2148,776L1992,972Z" fill="#6582a7" stroke="#6582a7" stroke-width="1.51"/><path d="M2343,642L2176,598L2126,717Z" fill="#a89ea1" stroke="#a89ea1" stroke-width="1.51"/><path d="M336,1210L451,1314L500,1081Z" fill="#b56278" stroke="#b56278" stroke-width="1.51"/><path d="M554,1300L451,1314L635,1327Z" fill="#b67482" stroke="#b67482" stroke-width="1.51"/><path d="M635,1327L322,1396L856,1349Z" fill="#b67d87" stroke="#b67d87" stroke-width="1.51"/><path d="M350,-15L315,164L472,166Z" fill="#e2544a" stroke="#e2544a" stroke-width="1.51"/><path d="M677,-152L537,-108L649,29Z" fill="#cf6955" stroke="#cf6955" stroke-width="1.51"/><path d="M59,442L135,604L228,589Z" fill="#e89e81" stroke="#e89e81" stroke-width="1.51"/><path d="M350,-15L472,166L523,-23Z" fill="#d5544a" stroke="#d5544a" stroke-width="1.51"/><path d="M175,871L216,944L312,805Z" fill="#b48b78" stroke="#b48b78" stroke-width="1.51"/><path d="M335,1064L336,1210L500,1081Z" fill="#b45c75" stroke="#b45c75" stroke-width="1.51"/><path d="M175,871L312,805L245,687Z" fill="#c89777" stroke="#c89777" stroke-width="1.51"/><path d="M315,164L243,275L414,274Z" fill="#f06c49" stroke="#f06c49" stroke-width="1.51"/><path d="M291,1143L336,1210L335,1064Z" fill="#ae5577" stroke="#ae5577" stroke-width="1.51"/><path d="M216,944L291,1143L335,1064Z" fill="#ab5b7b" stroke="#ab5b7b" stroke-width="1.51"/><path d="M216,944L139,1134L291,1143Z" fill="#a64d79" stroke="#a64d79" stroke-width="1.51"/><path d="M60,728L175,871L245,687Z" fill="#c59177" stroke="#c59177" stroke-width="1.51"/><path d="M135,604L245,687L228,589Z" fill="#e8a276" stroke="#e8a276" stroke-width="1.51"/><path d="M1823,-26L1805,-209L1621,-40Z" fill="#8a5d7b" stroke="#8a5d7b" stroke-width="1.51"/><path d="M1604,-148L1805,-209L1506,-193Z" fill="#936e74" stroke="#936e74" stroke-width="1.51"/><path d="M2064,-61L1889,-128L1899,89Z" fill="#893b72" stroke="#893b72" stroke-width="1.51"/><path d="M2064,-61L1899,89L1974,139Z" fill="#973f75" stroke="#973f75" stroke-width="1.51"/><path d="M2148,776L2343,642L2126,717Z" fill="#9799a3" stroke="#9799a3" stroke-width="1.51"/><path d="M2215,1089L2202,918L1992,972Z" fill="#5367ad" stroke="#5367ad" stroke-width="1.51"/><path d="M2215,1089L1992,972L1964,1137Z" fill="#5d53a4" stroke="#5d53a4" stroke-width="1.51"/><path d="M2176,598L2192,339L2018,453Z" fill="#b498a2" stroke="#b498a2" stroke-width="1.51"/><path d="M2200,325L2192,339L2319,332Z" fill="#b67e87" stroke="#b67e87" stroke-width="1.51"/><path d="M59,442L228,589L280,341Z" fill="#ed9771" stroke="#ed9771" stroke-width="1.51"/><path d="M1889,-128L1805,-209L1823,-26Z" fill="#874f79" stroke="#874f79" stroke-width="1.51"/><path d="M1506,-193L1805,-209L869,-210Z" fill="#b08171" stroke="#b08171" stroke-width="1.51"/><path d="M1875,1298L2067,1239L1964,1137Z" fill="#5e51a3" stroke="#5e51a3" stroke-width="1.51"/><path d="M2073,1339L2067,1239L1875,1298Z" fill="#5e4fa2" stroke="#5e4fa2" stroke-width="1.51"/><path d="M2192,339L2200,325L1970,279Z" fill="#b67984" stroke="#b67984" stroke-width="1.51"/><path d="M2319,332L2192,339L2360,515Z" fill="#b58c94" stroke="#b58c94" stroke-width="1.51"/><path d="M537,-108L350,-15L523,-23Z" fill="#cb5049" stroke="#cb5049" stroke-width="1.51"/><path d="M315,164L102,202L243,275Z" fill="#e65949" stroke="#e65949" stroke-width="1.51"/><path d="M350,-15L262,74L315,164Z" fill="#d5454a" stroke="#d5454a" stroke-width="1.51"/><path d="M10,580L60,728L135,604Z" fill="#d49370" stroke="#d49370" stroke-width="1.51"/><path d="M1694,1431L1958,1439L1875,1298Z" fill="#5563ab" stroke="#5563ab" stroke-width="1.51"/><path d="M1426,1427L1958,1439L1694,1431Z" fill="#5d79ab" stroke="#5d79ab" stroke-width="1.51"/><path d="M2202,918L2265,896L2148,776Z" fill="#6a88a5" stroke="#6a88a5" stroke-width="1.51"/><path d="M2294,1074L2265,896L2202,918Z" fill="#536faf" stroke="#536faf" stroke-width="1.51"/><path d="M2215,1089L1964,1137L2067,1239Z" fill="#5e4fa2" stroke="#5e4fa2" stroke-width="1.51"/><path d="M2221,1201L2215,1089L2067,1239Z" fill="#5e4fa2" stroke="#5e4fa2" stroke-width="1.51"/><path d="M2200,325L2175,122L1970,279Z" fill="#b56579" stroke="#b56579" stroke-width="1.51"/><path d="M1889,-128L2060,-184L1805,-209Z" fill="#884274" stroke="#884274" stroke-width="1.51"/><path d="M1958,1439L2073,1339L1875,1298Z" fill="#5e51a3" stroke="#5e51a3" stroke-width="1.51"/><path d="M2114,-25L2064,-61L1974,139Z" fill="#8d3972" stroke="#8d3972" stroke-width="1.51"/><path d="M22,1003L139,1134L216,944Z" fill="#9a547b" stroke="#9a547b" stroke-width="1.51"/><path d="M135,604L60,728L245,687Z" fill="#d89972" stroke="#d89972" stroke-width="1.51"/><path d="M59,442L280,341L243,275Z" fill="#eb815e" stroke="#eb815e" stroke-width="1.51"/><path d="M191,1245L322,1396L336,1210Z" fill="#ab5178" stroke="#ab5178" stroke-width="1.51"/><path d="M336,1210L322,1396L451,1314Z" fill="#b25a76" stroke="#b25a76" stroke-width="1.51"/><path d="M451,1314L322,1396L635,1327Z" fill="#b5687c" stroke="#b5687c" stroke-width="1.51"/><path d="M1267,1418L78,1422L1426,1427Z" fill="#b39eab" stroke="#b39eab" stroke-width="1.51"/><path d="M191,1245L336,1210L291,1143Z" fill="#ab5077" stroke="#ab5077" stroke-width="1.51"/><path d="M262,74L102,202L315,164Z" fill="#dd4b4d" stroke="#dd4b4d" stroke-width="1.51"/><path d="M350,-15L227,30L262,74Z" fill="#c73849" stroke="#c73849" stroke-width="1.51"/><path d="M226,-205L227,30L350,-15Z" fill="#bf3047" stroke="#bf3047" stroke-width="1.51"/><path d="M2175,122L2114,-25L1974,139Z" fill="#9d4377" stroke="#9d4377" stroke-width="1.51"/><path d="M102,202L59,442L243,275Z" fill="#e06e54" stroke="#e06e54" stroke-width="1.51"/><path d="M2200,325L2332,133L2175,122Z" fill="#b15976" stroke="#b15976" stroke-width="1.51"/><path d="M2371,800L2343,642L2148,776Z" fill="#9096a4" stroke="#9096a4" stroke-width="1.51"/><path d="M2371,800L2148,776L2265,896Z" fill="#778da5" stroke="#778da5" stroke-width="1.51"/><path d="M22,1003L216,944L175,871Z" fill="#9f6f7f" stroke="#9f6f7f" stroke-width="1.51"/><path d="M139,1134L191,1245L291,1143Z" fill="#a54979" stroke="#a54979" stroke-width="1.51"/><path d="M60,728L41,832L175,871Z" fill="#b08574" stroke="#b08574" stroke-width="1.51"/><path d="M-65,746L41,832L60,728Z" fill="#af8271" stroke="#af8271" stroke-width="1.51"/><path d="M537,-108L393,-200L350,-15Z" fill="#ca4746" stroke="#ca4746" stroke-width="1.51"/><path d="M677,-152L393,-200L537,-108Z" fill="#cd5c4e" stroke="#cd5c4e" stroke-width="1.51"/><path d="M869,-210L393,-200L677,-152Z" fill="#cf6d58" stroke="#cf6d58" stroke-width="1.51"/><path d="M2215,1089L2294,1074L2202,918Z" fill="#585ea8" stroke="#585ea8" stroke-width="1.51"/><path d="M2073,1339L2221,1201L2067,1239Z" fill="#5e4fa2" stroke="#5e4fa2" stroke-width="1.51"/><path d="M2360,515L2192,339L2176,598Z" fill="#b49ba6" stroke="#b49ba6" stroke-width="1.51"/><path d="M2175,122L2279,-8L2114,-25Z" fill="#903b73" stroke="#903b73" stroke-width="1.51"/><path d="M227,30L102,202L262,74Z" fill="#d33d4f" stroke="#d33d4f" stroke-width="1.51"/><path d="M-15,343L102,202L-16,211Z" fill="#ce514a" stroke="#ce514a" stroke-width="1.51"/><path d="M2343,642L2360,515L2176,598Z" fill="#afa1ac" stroke="#afa1ac" stroke-width="1.51"/><path d="M59,442L10,580L135,604Z" fill="#de9680" stroke="#de9680" stroke-width="1.51"/><path d="M-15,343L10,580L59,442Z" fill="#d5856b" stroke="#d5856b" stroke-width="1.51"/><path d="M2221,1201L2294,1074L2215,1089Z" fill="#5e4fa2" stroke="#5e4fa2" stroke-width="1.51"/><path d="M2343,642L2371,800L2360,515Z" fill="#a89ea1" stroke="#a89ea1" stroke-width="1.51"/><path d="M2294,1074L2371,800L2265,896Z" fill="#5d79ab" stroke="#5d79ab" stroke-width="1.51"/><path d="M2230,-96L2064,-61L2114,-25Z" fill="#893570" stroke="#893570" stroke-width="1.51"/><path d="M2230,-96L2060,-184L2064,-61Z" fill="#893570" stroke="#893570" stroke-width="1.51"/><path d="M2064,-61L2060,-184L1889,-128Z" fill="#893570" stroke="#893570" stroke-width="1.51"/><path d="M41,832L22,1003L175,871Z" fill="#9d7478" stroke="#9d7478" stroke-width="1.51"/><path d="M-8,1299L176,1353L191,1245Z" fill="#994175" stroke="#994175" stroke-width="1.51"/><path d="M15,1032L22,1003L-92,898Z" fill="#87567c" stroke="#87567c" stroke-width="1.51"/><path d="M33,1183L191,1245L139,1134Z" fill="#994175" stroke="#994175" stroke-width="1.51"/><path d="M191,1245L176,1353L322,1396Z" fill="#a74c78" stroke="#a74c78" stroke-width="1.51"/><path d="M22,1003L15,1032L139,1134Z" fill="#914376" stroke="#914376" stroke-width="1.51"/><path d="M-92,898L22,1003L41,832Z" fill="#906976" stroke="#906976" stroke-width="1.51"/><path d="M10,580L-65,746L60,728Z" fill="#c1886d" stroke="#c1886d" stroke-width="1.51"/><path d="M102,202L-15,343L59,442Z" fill="#d56c55" stroke="#d56c55" stroke-width="1.51"/><path d="M-16,211L102,202L20,118Z" fill="#c83c47" stroke="#c83c47" stroke-width="1.51"/><path d="M2371,224L2200,325L2319,332Z" fill="#b67381" stroke="#b67381" stroke-width="1.51"/><path d="M2371,224L2332,133L2200,325Z" fill="#b56077" stroke="#b56077" stroke-width="1.51"/><path d="M2371,800L2371,224L2360,515Z" fill="#b39fad" stroke="#b39fad" stroke-width="1.51"/><path d="M2360,515L2371,224L2319,332Z" fill="#b6838c" stroke="#b6838c" stroke-width="1.51"/><path d="M-105,763L-223,555L-214,743Z" fill="#c0886e" stroke="#c0886e" stroke-width="1.51"/><path d="M-222,1133L33,1183L15,1032Z" fill="#893570" stroke="#893570" stroke-width="1.51"/><path d="M15,1032L33,1183L139,1134Z" fill="#913b73" stroke="#913b73" stroke-width="1.51"/><path d="M2277,-118L2279,-8L2332,133Z" fill="#893671" stroke="#893671" stroke-width="1.51"/><path d="M2332,133L2279,-8L2175,122Z" fill="#9e4477" stroke="#9e4477" stroke-width="1.51"/><path d="M2279,-8L2230,-96L2114,-25Z" fill="#893570" stroke="#893570" stroke-width="1.51"/><path d="M20,118L102,202L36,41Z" fill="#c2304a" stroke="#c2304a" stroke-width="1.51"/><path d="M-105,763L-65,746L-223,555Z" fill="#c0886e" stroke="#c0886e" stroke-width="1.51"/><path d="M36,41L102,202L227,30Z" fill="#c6324c" stroke="#c6324c" stroke-width="1.51"/><path d="M2294,1074L2306,1291L2371,800Z" fill="#5c56a5" stroke="#5c56a5" stroke-width="1.51"/><path d="M2221,1201L2306,1291L2294,1074Z" fill="#5e4fa2" stroke="#5e4fa2" stroke-width="1.51"/><path d="M2073,1339L2233,1397L2221,1201Z" fill="#5e4fa2" stroke="#5e4fa2" stroke-width="1.51"/><path d="M1958,1439L2233,1397L2073,1339Z" fill="#5e4fa2" stroke="#5e4fa2" stroke-width="1.51"/><path d="M869,-210L226,-205L393,-200Z" fill="#cc554b" stroke="#cc554b" stroke-width="1.51"/><path d="M393,-200L226,-205L350,-15Z" fill="#c33846" stroke="#c33846" stroke-width="1.51"/><path d="M2233,1397L2306,1291L2221,1201Z" fill="#5e4fa2" stroke="#5e4fa2" stroke-width="1.51"/><path d="M-65,746L-92,898L41,832Z" fill="#a07b71" stroke="#a07b71" stroke-width="1.51"/><path d="M-149,853L-105,763L-214,743Z" fill="#a97e71" stroke="#a97e71" stroke-width="1.51"/><path d="M17,-129L36,41L227,30Z" fill="#ab1645" stroke="#ab1645" stroke-width="1.51"/><path d="M-223,261L-180,357L-16,211Z" fill="#cc564c" stroke="#cc564c" stroke-width="1.51"/><path d="M-105,763L-92,898L-65,746Z" fill="#a67d71" stroke="#a67d71" stroke-width="1.51"/><path d="M2279,-8L2277,-118L2230,-96Z" fill="#893570" stroke="#893570" stroke-width="1.51"/><path d="M2230,-96L2277,-118L2060,-184Z" fill="#893570" stroke="#893570" stroke-width="1.51"/><path d="M2371,224L2277,-118L2332,133Z" fill="#9d4477" stroke="#9d4477" stroke-width="1.51"/><path d="M2233,1397L2322,1382L2306,1291Z" fill="#5e4fa2" stroke="#5e4fa2" stroke-width="1.51"/><path d="M2306,1291L2322,1382L2371,800Z" fill="#5e4fa2" stroke="#5e4fa2" stroke-width="1.51"/><path d="M-8,1299L78,1422L176,1353Z" fill="#943d74" stroke="#943d74" stroke-width="1.51"/><path d="M176,1353L78,1422L322,1396Z" fill="#a34879" stroke="#a34879" stroke-width="1.51"/><path d="M322,1396L78,1422L1267,1418Z" fill="#b67683" stroke="#b67683" stroke-width="1.51"/><path d="M1426,1427L78,1422L1958,1439Z" fill="#aaa0a4" stroke="#aaa0a4" stroke-width="1.51"/><path d="M-8,1299L191,1245L33,1183Z" fill="#933c74" stroke="#933c74" stroke-width="1.51"/><path d="M-201,1199L-8,1299L33,1183Z" fill="#893570" stroke="#893570" stroke-width="1.51"/><path d="M-105,763L-149,853L-92,898Z" fill="#9d7971" stroke="#9d7971" stroke-width="1.51"/><path d="M-180,357L10,580L-15,343Z" fill="#d17f65" stroke="#d17f65" stroke-width="1.51"/><path d="M-208,931L15,1032L-92,898Z" fill="#8a5e7b" stroke="#8a5e7b" stroke-width="1.51"/><path d="M-16,211L-180,357L-15,343Z" fill="#ce5f50" stroke="#ce5f50" stroke-width="1.51"/><path d="M-114,134L-16,211L20,118Z" fill="#c03247" stroke="#c03247" stroke-width="1.51"/><path d="M-88,50L-114,134L20,118Z" fill="#b72448" stroke="#b72448" stroke-width="1.51"/><path d="M-88,50L20,118L36,41Z" fill="#af1b46" stroke="#af1b46" stroke-width="1.51"/><path d="M-149,853L-208,931L-92,898Z" fill="#936e74" stroke="#936e74" stroke-width="1.51"/><path d="M-223,555L-65,746L10,580Z" fill="#cb8c6f" stroke="#cb8c6f" stroke-width="1.51"/><path d="M226,-205L17,-129L227,30Z" fill="#b32047" stroke="#b32047" stroke-width="1.51"/><path d="M17,-129L-88,50L36,41Z" fill="#9e0142" stroke="#9e0142" stroke-width="1.51"/><path d="M1805,-209L69,-213L869,-210Z" fill="#d38974" stroke="#d38974" stroke-width="1.51"/><path d="M869,-210L69,-213L226,-205Z" fill="#c84044" stroke="#c84044" stroke-width="1.51"/><path d="M226,-205L69,-213L17,-129Z" fill="#ac1846" stroke="#ac1846" stroke-width="1.51"/><path d="M-180,357L-223,555L10,580Z" fill="#d38974" stroke="#d38974" stroke-width="1.51"/><path d="M-214,743L-208,931L-149,853Z" fill="#9c7971" stroke="#9c7971" stroke-width="1.51"/><path d="M-222,1133L-208,931L-214,743Z" fill="#8d6279" stroke="#8d6279" stroke-width="1.51"/><path d="M-8,1299L-72,1394L78,1422Z" fill="#893570" stroke="#893570" stroke-width="1.51"/><path d="M-201,1199L-72,1394L-8,1299Z" fill="#893570" stroke="#893570" stroke-width="1.51"/><path d="M-192,76L-114,134L-88,50Z" fill="#b42048" stroke="#b42048" stroke-width="1.51"/><path d="M-192,76L-223,261L-114,134Z" fill="#c03347" stroke="#c03347" stroke-width="1.51"/><path d="M-114,134L-223,261L-16,211Z" fill="#c73e45" stroke="#c73e45" stroke-width="1.51"/><path d="M-180,357L-223,261L-223,555Z" fill="#d0765f" stroke="#d0765f" stroke-width="1.51"/><path d="M-223,555L-222,1133L-214,743Z" fill="#a47c71" stroke="#a47c71" stroke-width="1.51"/><path d="M-208,931L-222,1133L15,1032Z" fill="#884676" stroke="#884676" stroke-width="1.51"/><path d="M-222,1133L-201,1199L33,1183Z" fill="#893570" stroke="#893570" stroke-width="1.51"/><path d="M-198,-64L-192,76L-88,50Z" fill="#a30b44" stroke="#a30b44" stroke-width="1.51"/><path d="M-198,-64L-88,50L17,-129Z" fill="#9e0142" stroke="#9e0142" stroke-width="1.51"/><path d="M-201,1199L-127,1419L-72,1394Z" fill="#893570" stroke="#893570" stroke-width="1.51"/><path d="M-72,1394L-127,1419L78,1422Z" fill="#893570" stroke="#893570" stroke-width="1.51"/><path d="M-166,-194L-198,-64L17,-129Z" fill="#9e0142" stroke="#9e0142" stroke-width="1.51"/><path d="M-192,76L-198,-64L-223,261Z" fill="#b52248" stroke="#b52248" stroke-width="1.51"/><path d="M69,-213L-166,-194L17,-129Z" fill="#9e0142" stroke="#9e0142" stroke-width="1.51"/></svg>